<svg width="1363" height="167" viewBox="0 0 1363 167" fill="none" xmlns="http://www.w3.org/2000/svg">
<rect width="1363" height="167" rx="15" fill="#F0F0F0"/>
<path d="M0 15C0 6.71573 6.71573 0 15 0H37V167H15C6.71573 167 0 160.284 0 152V15Z" fill="#424241"/>
<path d="M100.906 54.9219L93.3945 52.2383V49.0859L103.602 53.375V55.6367L100.906 54.9219ZM93.3945 57.1719L100.918 54.4297L103.602 53.7852V56.0352L93.3945 60.3242V57.1719ZM115.414 44.9375V62H111.898V44.9375H115.414ZM122.211 52.2266V54.9688H114.453V52.2266H122.211ZM123.031 44.9375V47.6914H114.453V44.9375H123.031ZM127.93 52.0859V62H124.555V49.3203H127.73L127.93 52.0859ZM131.75 49.2383L131.691 52.3672C131.527 52.3438 131.328 52.3242 131.094 52.3086C130.867 52.2852 130.66 52.2734 130.473 52.2734C129.996 52.2734 129.582 52.3359 129.23 52.4609C128.887 52.5781 128.598 52.7539 128.363 52.9883C128.137 53.2227 127.965 53.5078 127.848 53.8438C127.738 54.1797 127.676 54.5625 127.66 54.9922L126.98 54.7812C126.98 53.9609 127.062 53.207 127.227 52.5195C127.391 51.8242 127.629 51.2188 127.941 50.7031C128.262 50.1875 128.652 49.7891 129.113 49.5078C129.574 49.2266 130.102 49.0859 130.695 49.0859C130.883 49.0859 131.074 49.1016 131.27 49.1328C131.465 49.1562 131.625 49.1914 131.75 49.2383ZM140.844 58.9648V49.3203H144.219V62H141.043L140.844 58.9648ZM141.219 56.3633L142.215 56.3398C142.215 57.1836 142.117 57.9688 141.922 58.6953C141.727 59.4141 141.434 60.0391 141.043 60.5703C140.652 61.0938 140.16 61.5039 139.566 61.8008C138.973 62.0898 138.273 62.2344 137.469 62.2344C136.852 62.2344 136.281 62.1484 135.758 61.9766C135.242 61.7969 134.797 61.5195 134.422 61.1445C134.055 60.7617 133.766 60.2734 133.555 59.6797C133.352 59.0781 133.25 58.3555 133.25 57.5117V49.3203H136.625V57.5352C136.625 57.9102 136.668 58.2266 136.754 58.4844C136.848 58.7422 136.977 58.9531 137.141 59.1172C137.305 59.2812 137.496 59.3984 137.715 59.4688C137.941 59.5391 138.191 59.5742 138.465 59.5742C139.16 59.5742 139.707 59.4336 140.105 59.1523C140.512 58.8711 140.797 58.4883 140.961 58.0039C141.133 57.5117 141.219 56.9648 141.219 56.3633ZM150.359 49.3203V62H146.973V49.3203H150.359ZM146.762 46.0156C146.762 45.5234 146.934 45.1172 147.277 44.7969C147.621 44.4766 148.082 44.3164 148.66 44.3164C149.23 44.3164 149.688 44.4766 150.031 44.7969C150.383 45.1172 150.559 45.5234 150.559 46.0156C150.559 46.5078 150.383 46.9141 150.031 47.2344C149.688 47.5547 149.23 47.7148 148.66 47.7148C148.082 47.7148 147.621 47.5547 147.277 47.2344C146.934 46.9141 146.762 46.5078 146.762 46.0156ZM159.359 49.3203V51.7109H151.977V49.3203H159.359ZM153.805 46.1914H157.18V58.1797C157.18 58.5469 157.227 58.8281 157.32 59.0234C157.422 59.2188 157.57 59.3555 157.766 59.4336C157.961 59.5039 158.207 59.5391 158.504 59.5391C158.715 59.5391 158.902 59.5312 159.066 59.5156C159.238 59.4922 159.383 59.4688 159.5 59.4453L159.512 61.9297C159.223 62.0234 158.91 62.0977 158.574 62.1523C158.238 62.207 157.867 62.2344 157.461 62.2344C156.719 62.2344 156.07 62.1133 155.516 61.8711C154.969 61.6211 154.547 61.2227 154.25 60.6758C153.953 60.1289 153.805 59.4102 153.805 58.5195V46.1914ZM168.125 59.1406V53.4922C168.125 53.0859 168.059 52.7383 167.926 52.4492C167.793 52.1523 167.586 51.9219 167.305 51.7578C167.031 51.5938 166.676 51.5117 166.238 51.5117C165.863 51.5117 165.539 51.5781 165.266 51.7109C164.992 51.8359 164.781 52.0195 164.633 52.2617C164.484 52.4961 164.41 52.7734 164.41 53.0938H161.035C161.035 52.5547 161.16 52.043 161.41 51.5586C161.66 51.0742 162.023 50.6484 162.5 50.2812C162.977 49.9062 163.543 49.6133 164.199 49.4023C164.863 49.1914 165.605 49.0859 166.426 49.0859C167.41 49.0859 168.285 49.25 169.051 49.5781C169.816 49.9062 170.418 50.3984 170.855 51.0547C171.301 51.7109 171.523 52.5312 171.523 53.5156V58.9414C171.523 59.6367 171.566 60.207 171.652 60.6523C171.738 61.0898 171.863 61.4727 172.027 61.8008V62H168.617C168.453 61.6562 168.328 61.2266 168.242 60.7109C168.164 60.1875 168.125 59.6641 168.125 59.1406ZM168.57 54.2773L168.594 56.1875H166.707C166.262 56.1875 165.875 56.2383 165.547 56.3398C165.219 56.4414 164.949 56.5859 164.738 56.7734C164.527 56.9531 164.371 57.1641 164.27 57.4062C164.176 57.6484 164.129 57.9141 164.129 58.2031C164.129 58.4922 164.195 58.7539 164.328 58.9883C164.461 59.2148 164.652 59.3945 164.902 59.5273C165.152 59.6523 165.445 59.7148 165.781 59.7148C166.289 59.7148 166.73 59.6133 167.105 59.4102C167.48 59.207 167.77 58.957 167.973 58.6602C168.184 58.3633 168.293 58.082 168.301 57.8164L169.191 59.2461C169.066 59.5664 168.895 59.8984 168.676 60.2422C168.465 60.5859 168.195 60.9102 167.867 61.2148C167.539 61.5117 167.145 61.7578 166.684 61.9531C166.223 62.1406 165.676 62.2344 165.043 62.2344C164.238 62.2344 163.508 62.0742 162.852 61.7539C162.203 61.4258 161.688 60.9766 161.305 60.4062C160.93 59.8281 160.742 59.1719 160.742 58.4375C160.742 57.7734 160.867 57.1836 161.117 56.668C161.367 56.1523 161.734 55.7188 162.219 55.3672C162.711 55.0078 163.324 54.7383 164.059 54.5586C164.793 54.3711 165.645 54.2773 166.613 54.2773H168.57ZM174.125 44H177.5V59.0938L177.16 62H174.125V44ZM185.527 55.5312V55.7773C185.527 56.7227 185.426 57.5898 185.223 58.3789C185.027 59.168 184.723 59.8516 184.309 60.4297C183.895 61 183.379 61.4453 182.762 61.7656C182.152 62.0781 181.434 62.2344 180.605 62.2344C179.832 62.2344 179.16 62.0781 178.59 61.7656C178.027 61.4531 177.555 61.0117 177.172 60.4414C176.789 59.8711 176.48 59.2031 176.246 58.4375C176.012 57.6719 175.836 56.8359 175.719 55.9297V55.3906C175.836 54.4844 176.012 53.6484 176.246 52.8828C176.48 52.1172 176.789 51.4492 177.172 50.8789C177.555 50.3086 178.027 49.8672 178.59 49.5547C179.152 49.2422 179.816 49.0859 180.582 49.0859C181.418 49.0859 182.145 49.2461 182.762 49.5664C183.387 49.8789 183.902 50.3242 184.309 50.9023C184.723 51.4727 185.027 52.1523 185.223 52.9414C185.426 53.7227 185.527 54.5859 185.527 55.5312ZM182.152 55.7773V55.5312C182.152 55.0156 182.113 54.5312 182.035 54.0781C181.965 53.6172 181.84 53.2148 181.66 52.8711C181.48 52.5195 181.234 52.2422 180.922 52.0391C180.617 51.8359 180.223 51.7344 179.738 51.7344C179.277 51.7344 178.887 51.8125 178.566 51.9688C178.246 52.125 177.98 52.3438 177.77 52.625C177.566 52.9062 177.414 53.2422 177.312 53.6328C177.211 54.0156 177.148 54.4375 177.125 54.8984V56.4336C177.148 57.0508 177.25 57.5977 177.43 58.0742C177.617 58.543 177.898 58.9141 178.273 59.1875C178.656 59.4531 179.152 59.5859 179.762 59.5859C180.238 59.5859 180.633 59.4922 180.945 59.3047C181.258 59.1172 181.5 58.8516 181.672 58.5078C181.852 58.1641 181.977 57.7617 182.047 57.3008C182.117 56.832 182.152 56.3242 182.152 55.7773ZM191.188 44V62H187.801V44H191.188ZM199.812 62.2344C198.828 62.2344 197.945 62.0781 197.164 61.7656C196.383 61.4453 195.719 61.0039 195.172 60.4414C194.633 59.8789 194.219 59.2266 193.93 58.4844C193.641 57.7344 193.496 56.9375 193.496 56.0938V55.625C193.496 54.6641 193.633 53.7852 193.906 52.9883C194.18 52.1914 194.57 51.5 195.078 50.9141C195.594 50.3281 196.219 49.8789 196.953 49.5664C197.688 49.2461 198.516 49.0859 199.438 49.0859C200.336 49.0859 201.133 49.2344 201.828 49.5312C202.523 49.8281 203.105 50.25 203.574 50.7969C204.051 51.3438 204.41 52 204.652 52.7656C204.895 53.5234 205.016 54.3672 205.016 55.2969V56.7031H194.938V54.4531H201.699V54.1953C201.699 53.7266 201.613 53.3086 201.441 52.9414C201.277 52.5664 201.027 52.2695 200.691 52.0508C200.355 51.832 199.926 51.7227 199.402 51.7227C198.957 51.7227 198.574 51.8203 198.254 52.0156C197.934 52.2109 197.672 52.4844 197.469 52.8359C197.273 53.1875 197.125 53.6016 197.023 54.0781C196.93 54.5469 196.883 55.0625 196.883 55.625V56.0938C196.883 56.6016 196.953 57.0703 197.094 57.5C197.242 57.9297 197.449 58.3008 197.715 58.6133C197.988 58.9258 198.316 59.168 198.699 59.3398C199.09 59.5117 199.531 59.5977 200.023 59.5977C200.633 59.5977 201.199 59.4805 201.723 59.2461C202.254 59.0039 202.711 58.6406 203.094 58.1562L204.734 59.9375C204.469 60.3203 204.105 60.6875 203.645 61.0391C203.191 61.3906 202.645 61.6797 202.004 61.9062C201.363 62.125 200.633 62.2344 199.812 62.2344Z" fill="#888888"/>
<path d="M102.635 86.0078V118H94.9443V86.0078H102.635ZM115.181 99.2573V118H107.776V94.2256H114.72L115.181 99.2573ZM114.28 105.3L112.588 105.344C112.588 103.674 112.786 102.136 113.182 100.729C113.577 99.3232 114.163 98.1001 114.939 97.0601C115.716 96.02 116.668 95.2144 117.796 94.6431C118.938 94.0718 120.257 93.7861 121.751 93.7861C122.791 93.7861 123.736 93.9473 124.585 94.2695C125.435 94.5771 126.167 95.0679 126.783 95.7417C127.398 96.4009 127.867 97.2651 128.189 98.3345C128.526 99.3892 128.694 100.656 128.694 102.136V118H121.29V103.081C121.29 102.07 121.172 101.308 120.938 100.795C120.718 100.283 120.396 99.9385 119.971 99.7627C119.546 99.5869 119.026 99.499 118.411 99.499C117.767 99.499 117.188 99.6455 116.675 99.9385C116.163 100.231 115.723 100.642 115.357 101.169C115.005 101.682 114.734 102.29 114.544 102.993C114.368 103.696 114.28 104.465 114.28 105.3ZM127.859 105.3L125.794 105.344C125.794 103.674 125.977 102.136 126.343 100.729C126.724 99.3232 127.288 98.1001 128.035 97.0601C128.797 96.02 129.742 95.2144 130.87 94.6431C131.998 94.0718 133.309 93.7861 134.803 93.7861C135.887 93.7861 136.883 93.9473 137.791 94.2695C138.699 94.5918 139.483 95.1118 140.142 95.8296C140.801 96.5474 141.314 97.4995 141.68 98.686C142.046 99.8579 142.229 101.308 142.229 103.037V118H134.803V103.037C134.803 102.055 134.686 101.315 134.451 100.817C134.231 100.305 133.909 99.9604 133.484 99.7847C133.06 99.5942 132.554 99.499 131.968 99.499C131.265 99.499 130.657 99.6455 130.145 99.9385C129.632 100.231 129.2 100.642 128.848 101.169C128.511 101.682 128.262 102.29 128.101 102.993C127.94 103.696 127.859 104.465 127.859 105.3ZM153.941 98.7959V127.141H146.536V94.2256H153.436L153.941 98.7959ZM168.531 105.827V106.289C168.531 108.017 168.333 109.621 167.938 111.101C167.542 112.58 166.956 113.869 166.18 114.968C165.403 116.066 164.437 116.923 163.279 117.539C162.137 118.139 160.811 118.439 159.302 118.439C157.881 118.439 156.658 118.125 155.633 117.495C154.607 116.865 153.75 115.993 153.062 114.88C152.374 113.767 151.817 112.492 151.392 111.057C150.967 109.621 150.63 108.105 150.381 106.508V105.915C150.63 104.201 150.967 102.612 151.392 101.147C151.817 99.6675 152.374 98.3784 153.062 97.2798C153.75 96.1812 154.6 95.3242 155.611 94.709C156.636 94.0938 157.859 93.7861 159.28 93.7861C160.789 93.7861 162.115 94.0718 163.257 94.6431C164.415 95.2144 165.381 96.0347 166.158 97.104C166.949 98.1587 167.542 99.4258 167.938 100.905C168.333 102.385 168.531 104.025 168.531 105.827ZM161.126 106.289V105.827C161.126 104.904 161.06 104.062 160.928 103.3C160.796 102.524 160.584 101.85 160.291 101.279C160.013 100.708 159.639 100.268 159.17 99.9604C158.702 99.6528 158.123 99.499 157.435 99.499C156.644 99.499 155.977 99.6235 155.435 99.8726C154.908 100.107 154.483 100.473 154.161 100.971C153.853 101.455 153.633 102.062 153.501 102.795C153.384 103.513 153.333 104.355 153.348 105.322V107.124C153.318 108.237 153.428 109.218 153.677 110.068C153.926 110.903 154.358 111.555 154.974 112.023C155.589 112.492 156.424 112.727 157.479 112.727C158.182 112.727 158.768 112.565 159.236 112.243C159.705 111.906 160.079 111.445 160.357 110.859C160.635 110.258 160.833 109.57 160.95 108.793C161.067 108.017 161.126 107.182 161.126 106.289ZM179.649 84.25V118H172.222V84.25H179.649ZM195.733 118.439C193.799 118.439 192.071 118.139 190.547 117.539C189.024 116.923 187.735 116.081 186.68 115.012C185.64 113.942 184.842 112.712 184.285 111.32C183.743 109.929 183.472 108.457 183.472 106.904V106.069C183.472 104.326 183.714 102.714 184.197 101.235C184.681 99.7407 185.398 98.437 186.351 97.3237C187.303 96.2104 188.497 95.3462 189.932 94.731C191.368 94.1011 193.038 93.7861 194.942 93.7861C196.626 93.7861 198.135 94.0571 199.468 94.5991C200.801 95.1411 201.929 95.9175 202.852 96.9282C203.79 97.939 204.5 99.1621 204.983 100.598C205.481 102.033 205.73 103.645 205.73 105.432V108.442H186.307V103.806H198.501V103.234C198.516 102.443 198.377 101.77 198.084 101.213C197.806 100.656 197.396 100.231 196.854 99.9385C196.312 99.6455 195.652 99.499 194.876 99.499C194.07 99.499 193.404 99.6748 192.876 100.026C192.364 100.378 191.961 100.861 191.668 101.477C191.39 102.077 191.192 102.773 191.075 103.564C190.958 104.355 190.899 105.19 190.899 106.069V106.904C190.899 107.783 191.016 108.581 191.25 109.299C191.5 110.017 191.851 110.632 192.305 111.145C192.774 111.643 193.331 112.031 193.975 112.309C194.634 112.587 195.381 112.727 196.216 112.727C197.227 112.727 198.223 112.536 199.205 112.155C200.186 111.774 201.028 111.145 201.731 110.266L205.093 114.265C204.61 114.953 203.921 115.62 203.028 116.264C202.149 116.909 201.094 117.436 199.864 117.846C198.633 118.242 197.256 118.439 195.733 118.439ZM216.211 99.2573V118H208.807V94.2256H215.75L216.211 99.2573ZM215.311 105.3L213.619 105.344C213.619 103.674 213.816 102.136 214.212 100.729C214.607 99.3232 215.193 98.1001 215.97 97.0601C216.746 96.02 217.698 95.2144 218.826 94.6431C219.969 94.0718 221.287 93.7861 222.781 93.7861C223.821 93.7861 224.766 93.9473 225.616 94.2695C226.465 94.5771 227.198 95.0679 227.813 95.7417C228.428 96.4009 228.897 97.2651 229.219 98.3345C229.556 99.3892 229.725 100.656 229.725 102.136V118H222.32V103.081C222.32 102.07 222.203 101.308 221.968 100.795C221.749 100.283 221.426 99.9385 221.001 99.7627C220.577 99.5869 220.057 99.499 219.441 99.499C218.797 99.499 218.218 99.6455 217.706 99.9385C217.193 100.231 216.753 100.642 216.387 101.169C216.036 101.682 215.765 102.29 215.574 102.993C215.398 103.696 215.311 104.465 215.311 105.3ZM228.89 105.3L226.824 105.344C226.824 103.674 227.007 102.136 227.374 100.729C227.754 99.3232 228.318 98.1001 229.065 97.0601C229.827 96.02 230.772 95.2144 231.9 94.6431C233.028 94.0718 234.339 93.7861 235.833 93.7861C236.917 93.7861 237.913 93.9473 238.821 94.2695C239.729 94.5918 240.513 95.1118 241.172 95.8296C241.832 96.5474 242.344 97.4995 242.71 98.686C243.077 99.8579 243.26 101.308 243.26 103.037V118H235.833V103.037C235.833 102.055 235.716 101.315 235.481 100.817C235.262 100.305 234.939 99.9604 234.515 99.7847C234.09 99.5942 233.584 99.499 232.999 99.499C232.295 99.499 231.688 99.6455 231.175 99.9385C230.662 100.231 230.23 100.642 229.878 101.169C229.542 101.682 229.292 102.29 229.131 102.993C228.97 103.696 228.89 104.465 228.89 105.3ZM259.014 118.439C257.081 118.439 255.352 118.139 253.829 117.539C252.305 116.923 251.016 116.081 249.961 115.012C248.921 113.942 248.123 112.712 247.566 111.32C247.024 109.929 246.753 108.457 246.753 106.904V106.069C246.753 104.326 246.995 102.714 247.479 101.235C247.962 99.7407 248.68 98.437 249.632 97.3237C250.584 96.2104 251.778 95.3462 253.213 94.731C254.649 94.1011 256.319 93.7861 258.223 93.7861C259.908 93.7861 261.417 94.0571 262.75 94.5991C264.083 95.1411 265.21 95.9175 266.133 96.9282C267.071 97.939 267.781 99.1621 268.265 100.598C268.763 102.033 269.012 103.645 269.012 105.432V108.442H249.588V103.806H261.783V103.234C261.797 102.443 261.658 101.77 261.365 101.213C261.087 100.656 260.677 100.231 260.135 99.9385C259.593 99.6455 258.934 99.499 258.157 99.499C257.352 99.499 256.685 99.6748 256.158 100.026C255.645 100.378 255.242 100.861 254.949 101.477C254.671 102.077 254.473 102.773 254.356 103.564C254.239 104.355 254.18 105.19 254.18 106.069V106.904C254.18 107.783 254.297 108.581 254.532 109.299C254.781 110.017 255.132 110.632 255.586 111.145C256.055 111.643 256.612 112.031 257.256 112.309C257.916 112.587 258.663 112.727 259.498 112.727C260.508 112.727 261.504 112.536 262.486 112.155C263.467 111.774 264.31 111.145 265.013 110.266L268.375 114.265C267.891 114.953 267.203 115.62 266.309 116.264C265.43 116.909 264.375 117.436 263.145 117.846C261.915 118.242 260.538 118.439 259.014 118.439ZM279.295 99.3013V118H271.89V94.2256H278.833L279.295 99.3013ZM278.416 105.3L276.68 105.344C276.68 103.527 276.9 101.909 277.339 100.488C277.779 99.0522 278.401 97.8364 279.207 96.8403C280.013 95.8442 280.972 95.0898 282.085 94.5771C283.213 94.0498 284.466 93.7861 285.843 93.7861C286.941 93.7861 287.945 93.9473 288.853 94.2695C289.776 94.5918 290.567 95.1118 291.226 95.8296C291.9 96.5474 292.413 97.4995 292.764 98.686C293.13 99.8579 293.313 101.308 293.313 103.037V118H285.865V103.015C285.865 102.062 285.733 101.337 285.469 100.839C285.206 100.327 284.825 99.9751 284.327 99.7847C283.829 99.5942 283.221 99.499 282.503 99.499C281.741 99.499 281.097 99.6455 280.569 99.9385C280.042 100.231 279.617 100.642 279.295 101.169C278.987 101.682 278.76 102.29 278.614 102.993C278.482 103.696 278.416 104.465 278.416 105.3ZM309.947 94.2256V99.3672H295.621V94.2256H309.947ZM298.631 88.3149H306.036V110.244C306.036 110.874 306.109 111.364 306.255 111.716C306.402 112.053 306.651 112.294 307.002 112.441C307.369 112.573 307.852 112.639 308.453 112.639C308.877 112.639 309.229 112.631 309.507 112.617C309.786 112.587 310.049 112.551 310.298 112.507V117.802C309.668 118.007 309.009 118.161 308.321 118.264C307.632 118.381 306.9 118.439 306.124 118.439C304.542 118.439 303.187 118.19 302.059 117.692C300.945 117.194 300.096 116.411 299.51 115.341C298.924 114.272 298.631 112.88 298.631 111.167V88.3149ZM325.24 112.023V102.224C325.24 101.55 325.145 100.971 324.954 100.488C324.764 100.004 324.463 99.6309 324.053 99.3672C323.643 99.0889 323.094 98.9497 322.405 98.9497C321.849 98.9497 321.373 99.0449 320.977 99.2354C320.582 99.4258 320.281 99.7114 320.076 100.092C319.871 100.473 319.769 100.957 319.769 101.542H312.364C312.364 100.444 312.605 99.4258 313.089 98.4883C313.587 97.5361 314.29 96.7085 315.198 96.0054C316.121 95.3022 317.22 94.7603 318.494 94.3794C319.783 93.9839 321.219 93.7861 322.801 93.7861C324.69 93.7861 326.375 94.1011 327.854 94.731C329.349 95.3608 330.528 96.3057 331.392 97.5654C332.256 98.8105 332.688 100.378 332.688 102.268V112.001C332.688 113.554 332.776 114.733 332.952 115.539C333.128 116.33 333.377 117.026 333.699 117.626V118H326.272C325.921 117.268 325.657 116.374 325.481 115.319C325.32 114.25 325.24 113.151 325.24 112.023ZM326.141 103.476L326.185 107.431H322.911C322.222 107.431 321.636 107.526 321.153 107.717C320.684 107.907 320.303 108.171 320.01 108.508C319.732 108.83 319.527 109.196 319.395 109.606C319.278 110.017 319.219 110.449 319.219 110.903C319.219 111.342 319.322 111.738 319.527 112.089C319.747 112.426 320.04 112.69 320.406 112.88C320.772 113.071 321.182 113.166 321.636 113.166C322.457 113.166 323.152 113.012 323.724 112.705C324.31 112.382 324.756 111.994 325.064 111.54C325.372 111.086 325.525 110.661 325.525 110.266L327.151 113.298C326.858 113.884 326.521 114.477 326.141 115.078C325.774 115.678 325.313 116.235 324.756 116.748C324.214 117.246 323.548 117.656 322.757 117.978C321.966 118.286 321.006 118.439 319.878 118.439C318.414 118.439 317.066 118.139 315.835 117.539C314.62 116.938 313.646 116.103 312.913 115.034C312.181 113.95 311.814 112.705 311.814 111.298C311.814 110.068 312.034 108.969 312.474 108.002C312.928 107.036 313.609 106.215 314.517 105.542C315.425 104.868 316.583 104.355 317.989 104.003C319.395 103.652 321.05 103.476 322.955 103.476H326.141ZM349.322 94.2256V99.3672H334.996V94.2256H349.322ZM338.006 88.3149H345.411V110.244C345.411 110.874 345.484 111.364 345.63 111.716C345.777 112.053 346.026 112.294 346.377 112.441C346.744 112.573 347.227 112.639 347.828 112.639C348.252 112.639 348.604 112.631 348.882 112.617C349.161 112.587 349.424 112.551 349.673 112.507V117.802C349.043 118.007 348.384 118.161 347.696 118.264C347.007 118.381 346.275 118.439 345.499 118.439C343.917 118.439 342.562 118.19 341.434 117.692C340.32 117.194 339.471 116.411 338.885 115.341C338.299 114.272 338.006 112.88 338.006 111.167V88.3149ZM360.088 94.2256V118H352.662V94.2256H360.088ZM352.222 88.0952C352.222 87.0405 352.603 86.1763 353.365 85.5024C354.126 84.8286 355.115 84.4917 356.331 84.4917C357.547 84.4917 358.536 84.8286 359.297 85.5024C360.059 86.1763 360.44 87.0405 360.44 88.0952C360.44 89.1499 360.059 90.0142 359.297 90.688C358.536 91.3618 357.547 91.6987 356.331 91.6987C355.115 91.6987 354.126 91.3618 353.365 90.688C352.603 90.0142 352.222 89.1499 352.222 88.0952ZM363.736 106.354V105.893C363.736 104.15 363.985 102.546 364.483 101.081C364.981 99.6016 365.713 98.3198 366.68 97.2358C367.647 96.1519 368.841 95.3096 370.262 94.709C371.683 94.0938 373.323 93.7861 375.184 93.7861C377.059 93.7861 378.707 94.0938 380.127 94.709C381.563 95.3096 382.764 96.1519 383.731 97.2358C384.698 98.3198 385.43 99.6016 385.928 101.081C386.426 102.546 386.675 104.15 386.675 105.893V106.354C386.675 108.083 386.426 109.687 385.928 111.167C385.43 112.631 384.698 113.913 383.731 115.012C382.764 116.096 381.57 116.938 380.149 117.539C378.729 118.139 377.088 118.439 375.228 118.439C373.367 118.439 371.719 118.139 370.284 117.539C368.848 116.938 367.647 116.096 366.68 115.012C365.713 113.913 364.981 112.631 364.483 111.167C363.985 109.687 363.736 108.083 363.736 106.354ZM371.141 105.893V106.354C371.141 107.248 371.207 108.083 371.338 108.859C371.47 109.636 371.69 110.317 371.998 110.903C372.305 111.474 372.723 111.921 373.25 112.243C373.777 112.565 374.437 112.727 375.228 112.727C376.004 112.727 376.648 112.565 377.161 112.243C377.688 111.921 378.106 111.474 378.414 110.903C378.721 110.317 378.941 109.636 379.073 108.859C379.205 108.083 379.271 107.248 379.271 106.354V105.893C379.271 105.029 379.205 104.216 379.073 103.454C378.941 102.678 378.721 101.997 378.414 101.411C378.106 100.81 377.688 100.341 377.161 100.004C376.634 99.6675 375.975 99.499 375.184 99.499C374.407 99.499 373.755 99.6675 373.228 100.004C372.715 100.341 372.305 100.81 371.998 101.411C371.69 101.997 371.47 102.678 371.338 103.454C371.207 104.216 371.141 105.029 371.141 105.893ZM397.244 99.3013V118H389.839V94.2256H396.783L397.244 99.3013ZM396.365 105.3L394.629 105.344C394.629 103.527 394.849 101.909 395.289 100.488C395.728 99.0522 396.351 97.8364 397.156 96.8403C397.962 95.8442 398.921 95.0898 400.035 94.5771C401.163 94.0498 402.415 93.7861 403.792 93.7861C404.891 93.7861 405.894 93.9473 406.802 94.2695C407.725 94.5918 408.516 95.1118 409.175 95.8296C409.849 96.5474 410.362 97.4995 410.713 98.686C411.08 99.8579 411.263 101.308 411.263 103.037V118H403.814V103.015C403.814 102.062 403.682 101.337 403.418 100.839C403.155 100.327 402.774 99.9751 402.276 99.7847C401.778 99.5942 401.17 99.499 400.452 99.499C399.69 99.499 399.046 99.6455 398.519 99.9385C397.991 100.231 397.566 100.642 397.244 101.169C396.937 101.682 396.709 102.29 396.563 102.993C396.431 103.696 396.365 104.465 396.365 105.3Z" fill="#424241"/>
<path d="M1363 15C1363 6.71573 1356.28 0 1348 0H1134V167H1348C1356.28 167 1363 160.284 1363 152V15Z" fill="#FDBE3B"/>
<path d="M1281.5 49H1216.5L1214 51.5V116.5L1216.5 119H1281.5L1284 116.5V51.5L1281.5 49ZM1279 114H1234V104H1245.5C1247 107 1250.5 109 1254 109C1259.5 109 1264 104.5 1264 99C1264 93.5 1259.5 89 1254 89C1248.5 89 1244 93.5 1244 99H1229V114H1219V54H1229V65.5C1226 67 1224 70.5 1224 74C1224 79.5 1228.5 84 1234 84C1239.5 84 1244 79.5 1244 74H1254C1254 79.5 1258.5 84 1264 84C1269.5 84 1274 79.5 1274 74C1274 68.5 1269.5 64 1264 64C1260.5 64 1257 66 1255.5 69H1242.5C1241 66 1237.5 64 1234 64V54H1279V114ZM1249 99C1249 96 1251 94 1254 94C1257 94 1259 96 1259 99C1259 102 1257 104 1254 104C1251 104 1249 102 1249 99ZM1234 69C1237 69 1239 71 1239 74C1239 77 1237 79 1234 79C1231 79 1229 77 1229 74C1229 71 1231 69 1234 69ZM1264 69C1267 69 1269 71 1269 74C1269 77 1267 79 1264 79C1261 79 1259 77 1259 74C1259 71 1261 69 1264 69Z" fill="white"/>
</svg>
