<svg width="1363" height="167" viewBox="0 0 1363 167" fill="none" xmlns="http://www.w3.org/2000/svg">
<rect width="1363" height="167" rx="15" fill="#F0F0F0"/>
<path d="M0 15C0 6.71573 6.71573 0 15 0H37V167H15C6.71573 167 0 160.284 0 152V15Z" fill="#424241"/>
<path d="M100.906 54.9219L93.3945 52.2383V49.0859L103.602 53.375V55.6367L100.906 54.9219ZM93.3945 57.1719L100.918 54.4297L103.602 53.7852V56.0352L93.3945 60.3242V57.1719ZM115.414 44.9375V62H111.898V44.9375H115.414ZM122.211 52.2266V54.9688H114.453V52.2266H122.211ZM123.031 44.9375V47.6914H114.453V44.9375H123.031ZM127.93 52.0859V62H124.555V49.3203H127.73L127.93 52.0859ZM131.75 49.2383L131.691 52.3672C131.527 52.3438 131.328 52.3242 131.094 52.3086C130.867 52.2852 130.66 52.2734 130.473 52.2734C129.996 52.2734 129.582 52.3359 129.23 52.4609C128.887 52.5781 128.598 52.7539 128.363 52.9883C128.137 53.2227 127.965 53.5078 127.848 53.8438C127.738 54.1797 127.676 54.5625 127.66 54.9922L126.98 54.7812C126.98 53.9609 127.062 53.207 127.227 52.5195C127.391 51.8242 127.629 51.2188 127.941 50.7031C128.262 50.1875 128.652 49.7891 129.113 49.5078C129.574 49.2266 130.102 49.0859 130.695 49.0859C130.883 49.0859 131.074 49.1016 131.27 49.1328C131.465 49.1562 131.625 49.1914 131.75 49.2383ZM140.844 58.9648V49.3203H144.219V62H141.043L140.844 58.9648ZM141.219 56.3633L142.215 56.3398C142.215 57.1836 142.117 57.9688 141.922 58.6953C141.727 59.4141 141.434 60.0391 141.043 60.5703C140.652 61.0938 140.16 61.5039 139.566 61.8008C138.973 62.0898 138.273 62.2344 137.469 62.2344C136.852 62.2344 136.281 62.1484 135.758 61.9766C135.242 61.7969 134.797 61.5195 134.422 61.1445C134.055 60.7617 133.766 60.2734 133.555 59.6797C133.352 59.0781 133.25 58.3555 133.25 57.5117V49.3203H136.625V57.5352C136.625 57.9102 136.668 58.2266 136.754 58.4844C136.848 58.7422 136.977 58.9531 137.141 59.1172C137.305 59.2812 137.496 59.3984 137.715 59.4688C137.941 59.5391 138.191 59.5742 138.465 59.5742C139.16 59.5742 139.707 59.4336 140.105 59.1523C140.512 58.8711 140.797 58.4883 140.961 58.0039C141.133 57.5117 141.219 56.9648 141.219 56.3633ZM150.359 49.3203V62H146.973V49.3203H150.359ZM146.762 46.0156C146.762 45.5234 146.934 45.1172 147.277 44.7969C147.621 44.4766 148.082 44.3164 148.66 44.3164C149.23 44.3164 149.688 44.4766 150.031 44.7969C150.383 45.1172 150.559 45.5234 150.559 46.0156C150.559 46.5078 150.383 46.9141 150.031 47.2344C149.688 47.5547 149.23 47.7148 148.66 47.7148C148.082 47.7148 147.621 47.5547 147.277 47.2344C146.934 46.9141 146.762 46.5078 146.762 46.0156ZM159.359 49.3203V51.7109H151.977V49.3203H159.359ZM153.805 46.1914H157.18V58.1797C157.18 58.5469 157.227 58.8281 157.32 59.0234C157.422 59.2188 157.57 59.3555 157.766 59.4336C157.961 59.5039 158.207 59.5391 158.504 59.5391C158.715 59.5391 158.902 59.5312 159.066 59.5156C159.238 59.4922 159.383 59.4688 159.5 59.4453L159.512 61.9297C159.223 62.0234 158.91 62.0977 158.574 62.1523C158.238 62.207 157.867 62.2344 157.461 62.2344C156.719 62.2344 156.07 62.1133 155.516 61.8711C154.969 61.6211 154.547 61.2227 154.25 60.6758C153.953 60.1289 153.805 59.4102 153.805 58.5195V46.1914ZM168.125 59.1406V53.4922C168.125 53.0859 168.059 52.7383 167.926 52.4492C167.793 52.1523 167.586 51.9219 167.305 51.7578C167.031 51.5938 166.676 51.5117 166.238 51.5117C165.863 51.5117 165.539 51.5781 165.266 51.7109C164.992 51.8359 164.781 52.0195 164.633 52.2617C164.484 52.4961 164.41 52.7734 164.41 53.0938H161.035C161.035 52.5547 161.16 52.043 161.41 51.5586C161.66 51.0742 162.023 50.6484 162.5 50.2812C162.977 49.9062 163.543 49.6133 164.199 49.4023C164.863 49.1914 165.605 49.0859 166.426 49.0859C167.41 49.0859 168.285 49.25 169.051 49.5781C169.816 49.9062 170.418 50.3984 170.855 51.0547C171.301 51.7109 171.523 52.5312 171.523 53.5156V58.9414C171.523 59.6367 171.566 60.207 171.652 60.6523C171.738 61.0898 171.863 61.4727 172.027 61.8008V62H168.617C168.453 61.6562 168.328 61.2266 168.242 60.7109C168.164 60.1875 168.125 59.6641 168.125 59.1406ZM168.57 54.2773L168.594 56.1875H166.707C166.262 56.1875 165.875 56.2383 165.547 56.3398C165.219 56.4414 164.949 56.5859 164.738 56.7734C164.527 56.9531 164.371 57.1641 164.27 57.4062C164.176 57.6484 164.129 57.9141 164.129 58.2031C164.129 58.4922 164.195 58.7539 164.328 58.9883C164.461 59.2148 164.652 59.3945 164.902 59.5273C165.152 59.6523 165.445 59.7148 165.781 59.7148C166.289 59.7148 166.73 59.6133 167.105 59.4102C167.48 59.207 167.77 58.957 167.973 58.6602C168.184 58.3633 168.293 58.082 168.301 57.8164L169.191 59.2461C169.066 59.5664 168.895 59.8984 168.676 60.2422C168.465 60.5859 168.195 60.9102 167.867 61.2148C167.539 61.5117 167.145 61.7578 166.684 61.9531C166.223 62.1406 165.676 62.2344 165.043 62.2344C164.238 62.2344 163.508 62.0742 162.852 61.7539C162.203 61.4258 161.688 60.9766 161.305 60.4062C160.93 59.8281 160.742 59.1719 160.742 58.4375C160.742 57.7734 160.867 57.1836 161.117 56.668C161.367 56.1523 161.734 55.7188 162.219 55.3672C162.711 55.0078 163.324 54.7383 164.059 54.5586C164.793 54.3711 165.645 54.2773 166.613 54.2773H168.57ZM174.125 44H177.5V59.0938L177.16 62H174.125V44ZM185.527 55.5312V55.7773C185.527 56.7227 185.426 57.5898 185.223 58.3789C185.027 59.168 184.723 59.8516 184.309 60.4297C183.895 61 183.379 61.4453 182.762 61.7656C182.152 62.0781 181.434 62.2344 180.605 62.2344C179.832 62.2344 179.16 62.0781 178.59 61.7656C178.027 61.4531 177.555 61.0117 177.172 60.4414C176.789 59.8711 176.48 59.2031 176.246 58.4375C176.012 57.6719 175.836 56.8359 175.719 55.9297V55.3906C175.836 54.4844 176.012 53.6484 176.246 52.8828C176.48 52.1172 176.789 51.4492 177.172 50.8789C177.555 50.3086 178.027 49.8672 178.59 49.5547C179.152 49.2422 179.816 49.0859 180.582 49.0859C181.418 49.0859 182.145 49.2461 182.762 49.5664C183.387 49.8789 183.902 50.3242 184.309 50.9023C184.723 51.4727 185.027 52.1523 185.223 52.9414C185.426 53.7227 185.527 54.5859 185.527 55.5312ZM182.152 55.7773V55.5312C182.152 55.0156 182.113 54.5312 182.035 54.0781C181.965 53.6172 181.84 53.2148 181.66 52.8711C181.48 52.5195 181.234 52.2422 180.922 52.0391C180.617 51.8359 180.223 51.7344 179.738 51.7344C179.277 51.7344 178.887 51.8125 178.566 51.9688C178.246 52.125 177.98 52.3438 177.77 52.625C177.566 52.9062 177.414 53.2422 177.312 53.6328C177.211 54.0156 177.148 54.4375 177.125 54.8984V56.4336C177.148 57.0508 177.25 57.5977 177.43 58.0742C177.617 58.543 177.898 58.9141 178.273 59.1875C178.656 59.4531 179.152 59.5859 179.762 59.5859C180.238 59.5859 180.633 59.4922 180.945 59.3047C181.258 59.1172 181.5 58.8516 181.672 58.5078C181.852 58.1641 181.977 57.7617 182.047 57.3008C182.117 56.832 182.152 56.3242 182.152 55.7773ZM191.188 44V62H187.801V44H191.188ZM199.812 62.2344C198.828 62.2344 197.945 62.0781 197.164 61.7656C196.383 61.4453 195.719 61.0039 195.172 60.4414C194.633 59.8789 194.219 59.2266 193.93 58.4844C193.641 57.7344 193.496 56.9375 193.496 56.0938V55.625C193.496 54.6641 193.633 53.7852 193.906 52.9883C194.18 52.1914 194.57 51.5 195.078 50.9141C195.594 50.3281 196.219 49.8789 196.953 49.5664C197.688 49.2461 198.516 49.0859 199.438 49.0859C200.336 49.0859 201.133 49.2344 201.828 49.5312C202.523 49.8281 203.105 50.25 203.574 50.7969C204.051 51.3438 204.41 52 204.652 52.7656C204.895 53.5234 205.016 54.3672 205.016 55.2969V56.7031H194.938V54.4531H201.699V54.1953C201.699 53.7266 201.613 53.3086 201.441 52.9414C201.277 52.5664 201.027 52.2695 200.691 52.0508C200.355 51.832 199.926 51.7227 199.402 51.7227C198.957 51.7227 198.574 51.8203 198.254 52.0156C197.934 52.2109 197.672 52.4844 197.469 52.8359C197.273 53.1875 197.125 53.6016 197.023 54.0781C196.93 54.5469 196.883 55.0625 196.883 55.625V56.0938C196.883 56.6016 196.953 57.0703 197.094 57.5C197.242 57.9297 197.449 58.3008 197.715 58.6133C197.988 58.9258 198.316 59.168 198.699 59.3398C199.09 59.5117 199.531 59.5977 200.023 59.5977C200.633 59.5977 201.199 59.4805 201.723 59.2461C202.254 59.0039 202.711 58.6406 203.094 58.1562L204.734 59.9375C204.469 60.3203 204.105 60.6875 203.645 61.0391C203.191 61.3906 202.645 61.6797 202.004 61.9062C201.363 62.125 200.633 62.2344 199.812 62.2344Z" fill="#888888"/>
<path d="M109.93 86.0078V118H102.217V86.0078H109.93ZM119.554 86.0078V91.9624H92.813V86.0078H119.554ZM132.012 118.439C130.079 118.439 128.35 118.139 126.827 117.539C125.303 116.923 124.014 116.081 122.959 115.012C121.919 113.942 121.121 112.712 120.564 111.32C120.022 109.929 119.751 108.457 119.751 106.904V106.069C119.751 104.326 119.993 102.714 120.477 101.235C120.96 99.7407 121.678 98.437 122.63 97.3237C123.582 96.2104 124.776 95.3462 126.211 94.731C127.647 94.1011 129.317 93.7861 131.221 93.7861C132.906 93.7861 134.415 94.0571 135.748 94.5991C137.081 95.1411 138.208 95.9175 139.131 96.9282C140.069 97.939 140.779 99.1621 141.263 100.598C141.761 102.033 142.01 103.645 142.01 105.432V108.442H122.586V103.806H134.781V103.234C134.795 102.443 134.656 101.77 134.363 101.213C134.085 100.656 133.675 100.231 133.133 99.9385C132.591 99.6455 131.932 99.499 131.155 99.499C130.35 99.499 129.683 99.6748 129.156 100.026C128.643 100.378 128.24 100.861 127.947 101.477C127.669 102.077 127.471 102.773 127.354 103.564C127.237 104.355 127.178 105.19 127.178 106.069V106.904C127.178 107.783 127.295 108.581 127.53 109.299C127.779 110.017 128.13 110.632 128.584 111.145C129.053 111.643 129.61 112.031 130.254 112.309C130.914 112.587 131.661 112.727 132.496 112.727C133.506 112.727 134.502 112.536 135.484 112.155C136.465 111.774 137.308 111.145 138.011 110.266L141.373 114.265C140.889 114.953 140.201 115.62 139.307 116.264C138.428 116.909 137.374 117.436 136.143 117.846C134.913 118.242 133.536 118.439 132.012 118.439ZM155.062 112.727C155.75 112.727 156.336 112.602 156.819 112.353C157.317 112.089 157.691 111.723 157.94 111.254C158.204 110.771 158.328 110.192 158.313 109.519H165.279C165.293 111.306 164.854 112.873 163.96 114.221C163.082 115.554 161.88 116.594 160.357 117.341C158.848 118.073 157.142 118.439 155.237 118.439C153.377 118.439 151.751 118.139 150.359 117.539C148.968 116.923 147.803 116.074 146.866 114.99C145.943 113.891 145.247 112.609 144.778 111.145C144.324 109.68 144.097 108.09 144.097 106.376V105.871C144.097 104.157 144.324 102.568 144.778 101.103C145.247 99.6235 145.943 98.3418 146.866 97.2578C147.803 96.1592 148.96 95.3096 150.337 94.709C151.729 94.0938 153.348 93.7861 155.193 93.7861C157.171 93.7861 158.914 94.1597 160.423 94.9067C161.946 95.6538 163.14 96.7378 164.004 98.1587C164.869 99.5796 165.293 101.301 165.279 103.322H158.313C158.328 102.604 158.218 101.96 157.984 101.389C157.75 100.817 157.383 100.363 156.885 100.026C156.402 99.6748 155.779 99.499 155.018 99.499C154.256 99.499 153.641 99.6675 153.172 100.004C152.703 100.341 152.344 100.81 152.095 101.411C151.861 101.997 151.7 102.67 151.612 103.432C151.539 104.194 151.502 105.007 151.502 105.871V106.376C151.502 107.255 151.539 108.083 151.612 108.859C151.7 109.621 151.868 110.295 152.117 110.881C152.366 111.452 152.725 111.906 153.194 112.243C153.663 112.565 154.285 112.727 155.062 112.727ZM175.694 84.25V118H168.289V84.25H175.694ZM174.815 105.3L173.079 105.344C173.079 103.674 173.284 102.136 173.694 100.729C174.104 99.3232 174.69 98.1001 175.452 97.0601C176.214 96.02 177.129 95.2144 178.199 94.6431C179.268 94.0718 180.455 93.7861 181.758 93.7861C182.93 93.7861 184 93.9546 184.966 94.2915C185.948 94.6284 186.79 95.1704 187.493 95.9175C188.211 96.6646 188.76 97.6387 189.141 98.8398C189.537 100.041 189.734 101.506 189.734 103.234V118H182.286V103.19C182.286 102.224 182.146 101.477 181.868 100.949C181.604 100.407 181.224 100.034 180.726 99.8286C180.228 99.6089 179.62 99.499 178.902 99.499C178.038 99.499 177.334 99.6455 176.792 99.9385C176.25 100.231 175.833 100.642 175.54 101.169C175.262 101.682 175.071 102.29 174.969 102.993C174.866 103.696 174.815 104.465 174.815 105.3ZM221.88 109.497C221.88 108.999 221.807 108.552 221.661 108.156C221.514 107.746 221.243 107.365 220.848 107.014C220.452 106.662 219.881 106.311 219.134 105.959C218.401 105.593 217.435 105.212 216.233 104.816C214.827 104.348 213.472 103.82 212.168 103.234C210.865 102.634 209.7 101.938 208.675 101.147C207.649 100.341 206.836 99.4038 206.236 98.3345C205.635 97.2505 205.335 95.9907 205.335 94.5552C205.335 93.1782 205.643 91.9404 206.258 90.8418C206.873 89.7285 207.73 88.7837 208.829 88.0073C209.942 87.2163 211.246 86.6157 212.74 86.2056C214.234 85.7808 215.867 85.5684 217.64 85.5684C219.983 85.5684 222.049 85.9785 223.836 86.7988C225.638 87.6045 227.044 88.7544 228.055 90.2485C229.08 91.728 229.593 93.4785 229.593 95.5H221.924C221.924 94.6943 221.756 93.9839 221.419 93.3687C221.097 92.7534 220.606 92.27 219.947 91.9185C219.288 91.5669 218.46 91.3911 217.464 91.3911C216.497 91.3911 215.684 91.5376 215.025 91.8306C214.366 92.1235 213.868 92.519 213.531 93.0171C213.194 93.5005 213.025 94.0352 213.025 94.6211C213.025 95.1045 213.157 95.5439 213.421 95.9395C213.699 96.3203 214.087 96.6792 214.585 97.0161C215.098 97.353 215.713 97.6753 216.431 97.9829C217.164 98.2905 217.984 98.5908 218.892 98.8838C220.591 99.4258 222.1 100.034 223.418 100.708C224.751 101.367 225.872 102.121 226.78 102.971C227.703 103.806 228.399 104.758 228.868 105.827C229.351 106.896 229.593 108.105 229.593 109.453C229.593 110.888 229.314 112.163 228.758 113.276C228.201 114.389 227.403 115.334 226.363 116.11C225.323 116.872 224.078 117.451 222.627 117.846C221.177 118.242 219.559 118.439 217.771 118.439C216.131 118.439 214.512 118.234 212.916 117.824C211.333 117.399 209.898 116.755 208.609 115.891C207.32 115.012 206.287 113.891 205.511 112.529C204.749 111.152 204.368 109.519 204.368 107.629H212.103C212.103 108.566 212.227 109.357 212.476 110.002C212.725 110.646 213.091 111.167 213.575 111.562C214.058 111.943 214.651 112.221 215.354 112.397C216.058 112.558 216.863 112.639 217.771 112.639C218.753 112.639 219.544 112.5 220.145 112.221C220.745 111.928 221.185 111.547 221.463 111.079C221.741 110.595 221.88 110.068 221.88 109.497ZM245.743 94.2256V99.3672H231.417V94.2256H245.743ZM234.427 88.3149H241.832V110.244C241.832 110.874 241.905 111.364 242.051 111.716C242.198 112.053 242.447 112.294 242.798 112.441C243.165 112.573 243.648 112.639 244.249 112.639C244.673 112.639 245.025 112.631 245.303 112.617C245.582 112.587 245.845 112.551 246.094 112.507V117.802C245.464 118.007 244.805 118.161 244.117 118.264C243.428 118.381 242.696 118.439 241.919 118.439C240.337 118.439 238.982 118.19 237.854 117.692C236.741 117.194 235.892 116.411 235.306 115.341C234.72 114.272 234.427 112.88 234.427 111.167V88.3149ZM261.036 112.023V102.224C261.036 101.55 260.94 100.971 260.75 100.488C260.56 100.004 260.259 99.6309 259.849 99.3672C259.439 99.0889 258.89 98.9497 258.201 98.9497C257.645 98.9497 257.168 99.0449 256.773 99.2354C256.377 99.4258 256.077 99.7114 255.872 100.092C255.667 100.473 255.564 100.957 255.564 101.542H248.16C248.16 100.444 248.401 99.4258 248.885 98.4883C249.383 97.5361 250.086 96.7085 250.994 96.0054C251.917 95.3022 253.016 94.7603 254.29 94.3794C255.579 93.9839 257.015 93.7861 258.597 93.7861C260.486 93.7861 262.171 94.1011 263.65 94.731C265.145 95.3608 266.324 96.3057 267.188 97.5654C268.052 98.8105 268.484 100.378 268.484 102.268V112.001C268.484 113.554 268.572 114.733 268.748 115.539C268.924 116.33 269.173 117.026 269.495 117.626V118H262.068C261.717 117.268 261.453 116.374 261.277 115.319C261.116 114.25 261.036 113.151 261.036 112.023ZM261.937 103.476L261.98 107.431H258.707C258.018 107.431 257.432 107.526 256.949 107.717C256.48 107.907 256.099 108.171 255.806 108.508C255.528 108.83 255.323 109.196 255.191 109.606C255.074 110.017 255.015 110.449 255.015 110.903C255.015 111.342 255.118 111.738 255.323 112.089C255.542 112.426 255.835 112.69 256.202 112.88C256.568 113.071 256.978 113.166 257.432 113.166C258.252 113.166 258.948 113.012 259.52 112.705C260.105 112.382 260.552 111.994 260.86 111.54C261.167 111.086 261.321 110.661 261.321 110.266L262.947 113.298C262.654 113.884 262.317 114.477 261.937 115.078C261.57 115.678 261.109 116.235 260.552 116.748C260.01 117.246 259.344 117.656 258.553 117.978C257.762 118.286 256.802 118.439 255.674 118.439C254.209 118.439 252.862 118.139 251.631 117.539C250.416 116.938 249.441 116.103 248.709 115.034C247.977 113.95 247.61 112.705 247.61 111.298C247.61 110.068 247.83 108.969 248.27 108.002C248.724 107.036 249.405 106.215 250.313 105.542C251.221 104.868 252.378 104.355 253.785 104.003C255.191 103.652 256.846 103.476 258.75 103.476H261.937ZM282.635 112.727C283.323 112.727 283.909 112.602 284.393 112.353C284.891 112.089 285.264 111.723 285.513 111.254C285.777 110.771 285.901 110.192 285.887 109.519H292.852C292.867 111.306 292.427 112.873 291.534 114.221C290.655 115.554 289.454 116.594 287.93 117.341C286.421 118.073 284.715 118.439 282.811 118.439C280.95 118.439 279.324 118.139 277.933 117.539C276.541 116.923 275.376 116.074 274.439 114.99C273.516 113.891 272.82 112.609 272.352 111.145C271.897 109.68 271.67 108.09 271.67 106.376V105.871C271.67 104.157 271.897 102.568 272.352 101.103C272.82 99.6235 273.516 98.3418 274.439 97.2578C275.376 96.1592 276.534 95.3096 277.911 94.709C279.302 94.0938 280.921 93.7861 282.767 93.7861C284.744 93.7861 286.487 94.1597 287.996 94.9067C289.52 95.6538 290.713 96.7378 291.578 98.1587C292.442 99.5796 292.867 101.301 292.852 103.322H285.887C285.901 102.604 285.792 101.96 285.557 101.389C285.323 100.817 284.957 100.363 284.458 100.026C283.975 99.6748 283.353 99.499 282.591 99.499C281.829 99.499 281.214 99.6675 280.745 100.004C280.276 100.341 279.917 100.81 279.668 101.411C279.434 101.997 279.273 102.67 279.185 103.432C279.112 104.194 279.075 105.007 279.075 105.871V106.376C279.075 107.255 279.112 108.083 279.185 108.859C279.273 109.621 279.441 110.295 279.69 110.881C279.939 111.452 280.298 111.906 280.767 112.243C281.236 112.565 281.858 112.727 282.635 112.727ZM303.487 84.228V118H296.082V84.228H303.487ZM318.692 94.2256L308.365 106.333L302.959 111.738L299.729 107.036L304.234 101.169L309.815 94.2256H318.692ZM310.76 118L304.41 107.167L309.881 103.278L319.241 118H310.76Z" fill="#424241"/>
<path d="M1363 15C1363 6.71573 1356.28 0 1348 0H1134V167H1348C1356.28 167 1363 160.284 1363 152V15Z" fill="#FDBE3B"/>
<path fill-rule="evenodd" clip-rule="evenodd" d="M1218.5 55C1218.37 55 1218.24 55.0527 1218.15 55.1464C1218.05 55.2402 1218 55.3674 1218 55.5V111.5C1218 111.633 1218.05 111.76 1218.15 111.854C1218.24 111.947 1218.37 112 1218.5 112H1278C1278.13 112 1278.26 111.947 1278.35 111.854C1278.45 111.76 1278.5 111.633 1278.5 111.5V66C1278.5 65.8674 1278.45 65.7402 1278.35 65.6464C1278.26 65.5527 1278.13 65.5 1278 65.5H1248.25C1247.36 65.5 1246.52 65.1045 1245.95 64.4206L1238.09 55H1218.5ZM1213.9 50.9038C1215.12 49.6848 1216.78 49 1218.5 49H1239.5C1240.39 49 1241.23 49.3955 1241.8 50.0794L1249.66 59.5H1278C1279.72 59.5 1281.38 60.1848 1282.6 61.4038C1283.82 62.6228 1284.5 64.2761 1284.5 66V111.5C1284.5 113.224 1283.82 114.877 1282.6 116.096C1281.38 117.315 1279.72 118 1278 118H1218.5C1216.78 118 1215.12 117.315 1213.9 116.096C1212.68 114.877 1212 113.224 1212 111.5V55.5C1212 53.7761 1212.68 52.1228 1213.9 50.9038Z" fill="white"/>
<path fill-rule="evenodd" clip-rule="evenodd" d="M1243.72 77.5251C1245.09 78.892 1245.09 81.108 1243.72 82.4749L1237.45 88.75L1243.72 95.0251C1245.09 96.392 1245.09 98.608 1243.72 99.9749C1242.36 101.342 1240.14 101.342 1238.78 99.9749L1230.03 91.2249C1228.66 89.858 1228.66 87.642 1230.03 86.2751L1238.78 77.5251C1240.14 76.1583 1242.36 76.1583 1243.72 77.5251Z" fill="white"/>
<path fill-rule="evenodd" clip-rule="evenodd" d="M1252.03 99.9749C1250.66 98.608 1250.66 96.392 1252.03 95.0251L1258.3 88.75L1252.03 82.4749C1250.66 81.108 1250.66 78.892 1252.03 77.5251C1253.39 76.1583 1255.61 76.1583 1256.97 77.5251L1265.72 86.2751C1267.09 87.642 1267.09 89.858 1265.72 91.2249L1256.97 99.9749C1255.61 101.342 1253.39 101.342 1252.03 99.9749Z" fill="white"/>
</svg>
