<svg width="1363" height="167" viewBox="0 0 1363 167" fill="none" xmlns="http://www.w3.org/2000/svg">
<rect width="1363" height="167" rx="15" fill="#F0F0F0"/>
<path d="M0 15C0 6.71573 6.71573 0 15 0H37V167H15C6.71573 167 0 160.284 0 152V15Z" fill="#424241"/>
<path d="M100.906 54.9219L93.3945 52.2383V49.0859L103.602 53.375V55.6367L100.906 54.9219ZM93.3945 57.1719L100.918 54.4297L103.602 53.7852V56.0352L93.3945 60.3242V57.1719ZM115.414 44.9375V62H111.898V44.9375H115.414ZM122.211 52.2266V54.9688H114.453V52.2266H122.211ZM123.031 44.9375V47.6914H114.453V44.9375H123.031ZM127.93 52.0859V62H124.555V49.3203H127.73L127.93 52.0859ZM131.75 49.2383L131.691 52.3672C131.527 52.3438 131.328 52.3242 131.094 52.3086C130.867 52.2852 130.66 52.2734 130.473 52.2734C129.996 52.2734 129.582 52.3359 129.23 52.4609C128.887 52.5781 128.598 52.7539 128.363 52.9883C128.137 53.2227 127.965 53.5078 127.848 53.8438C127.738 54.1797 127.676 54.5625 127.66 54.9922L126.98 54.7812C126.98 53.9609 127.062 53.207 127.227 52.5195C127.391 51.8242 127.629 51.2188 127.941 50.7031C128.262 50.1875 128.652 49.7891 129.113 49.5078C129.574 49.2266 130.102 49.0859 130.695 49.0859C130.883 49.0859 131.074 49.1016 131.27 49.1328C131.465 49.1562 131.625 49.1914 131.75 49.2383ZM140.844 58.9648V49.3203H144.219V62H141.043L140.844 58.9648ZM141.219 56.3633L142.215 56.3398C142.215 57.1836 142.117 57.9688 141.922 58.6953C141.727 59.4141 141.434 60.0391 141.043 60.5703C140.652 61.0938 140.16 61.5039 139.566 61.8008C138.973 62.0898 138.273 62.2344 137.469 62.2344C136.852 62.2344 136.281 62.1484 135.758 61.9766C135.242 61.7969 134.797 61.5195 134.422 61.1445C134.055 60.7617 133.766 60.2734 133.555 59.6797C133.352 59.0781 133.25 58.3555 133.25 57.5117V49.3203H136.625V57.5352C136.625 57.9102 136.668 58.2266 136.754 58.4844C136.848 58.7422 136.977 58.9531 137.141 59.1172C137.305 59.2812 137.496 59.3984 137.715 59.4688C137.941 59.5391 138.191 59.5742 138.465 59.5742C139.16 59.5742 139.707 59.4336 140.105 59.1523C140.512 58.8711 140.797 58.4883 140.961 58.0039C141.133 57.5117 141.219 56.9648 141.219 56.3633ZM150.359 49.3203V62H146.973V49.3203H150.359ZM146.762 46.0156C146.762 45.5234 146.934 45.1172 147.277 44.7969C147.621 44.4766 148.082 44.3164 148.66 44.3164C149.23 44.3164 149.688 44.4766 150.031 44.7969C150.383 45.1172 150.559 45.5234 150.559 46.0156C150.559 46.5078 150.383 46.9141 150.031 47.2344C149.688 47.5547 149.23 47.7148 148.66 47.7148C148.082 47.7148 147.621 47.5547 147.277 47.2344C146.934 46.9141 146.762 46.5078 146.762 46.0156ZM159.359 49.3203V51.7109H151.977V49.3203H159.359ZM153.805 46.1914H157.18V58.1797C157.18 58.5469 157.227 58.8281 157.32 59.0234C157.422 59.2188 157.57 59.3555 157.766 59.4336C157.961 59.5039 158.207 59.5391 158.504 59.5391C158.715 59.5391 158.902 59.5312 159.066 59.5156C159.238 59.4922 159.383 59.4688 159.5 59.4453L159.512 61.9297C159.223 62.0234 158.91 62.0977 158.574 62.1523C158.238 62.207 157.867 62.2344 157.461 62.2344C156.719 62.2344 156.07 62.1133 155.516 61.8711C154.969 61.6211 154.547 61.2227 154.25 60.6758C153.953 60.1289 153.805 59.4102 153.805 58.5195V46.1914ZM168.125 59.1406V53.4922C168.125 53.0859 168.059 52.7383 167.926 52.4492C167.793 52.1523 167.586 51.9219 167.305 51.7578C167.031 51.5938 166.676 51.5117 166.238 51.5117C165.863 51.5117 165.539 51.5781 165.266 51.7109C164.992 51.8359 164.781 52.0195 164.633 52.2617C164.484 52.4961 164.41 52.7734 164.41 53.0938H161.035C161.035 52.5547 161.16 52.043 161.41 51.5586C161.66 51.0742 162.023 50.6484 162.5 50.2812C162.977 49.9062 163.543 49.6133 164.199 49.4023C164.863 49.1914 165.605 49.0859 166.426 49.0859C167.41 49.0859 168.285 49.25 169.051 49.5781C169.816 49.9062 170.418 50.3984 170.855 51.0547C171.301 51.7109 171.523 52.5312 171.523 53.5156V58.9414C171.523 59.6367 171.566 60.207 171.652 60.6523C171.738 61.0898 171.863 61.4727 172.027 61.8008V62H168.617C168.453 61.6562 168.328 61.2266 168.242 60.7109C168.164 60.1875 168.125 59.6641 168.125 59.1406ZM168.57 54.2773L168.594 56.1875H166.707C166.262 56.1875 165.875 56.2383 165.547 56.3398C165.219 56.4414 164.949 56.5859 164.738 56.7734C164.527 56.9531 164.371 57.1641 164.27 57.4062C164.176 57.6484 164.129 57.9141 164.129 58.2031C164.129 58.4922 164.195 58.7539 164.328 58.9883C164.461 59.2148 164.652 59.3945 164.902 59.5273C165.152 59.6523 165.445 59.7148 165.781 59.7148C166.289 59.7148 166.73 59.6133 167.105 59.4102C167.48 59.207 167.77 58.957 167.973 58.6602C168.184 58.3633 168.293 58.082 168.301 57.8164L169.191 59.2461C169.066 59.5664 168.895 59.8984 168.676 60.2422C168.465 60.5859 168.195 60.9102 167.867 61.2148C167.539 61.5117 167.145 61.7578 166.684 61.9531C166.223 62.1406 165.676 62.2344 165.043 62.2344C164.238 62.2344 163.508 62.0742 162.852 61.7539C162.203 61.4258 161.688 60.9766 161.305 60.4062C160.93 59.8281 160.742 59.1719 160.742 58.4375C160.742 57.7734 160.867 57.1836 161.117 56.668C161.367 56.1523 161.734 55.7188 162.219 55.3672C162.711 55.0078 163.324 54.7383 164.059 54.5586C164.793 54.3711 165.645 54.2773 166.613 54.2773H168.57ZM174.125 44H177.5V59.0938L177.16 62H174.125V44ZM185.527 55.5312V55.7773C185.527 56.7227 185.426 57.5898 185.223 58.3789C185.027 59.168 184.723 59.8516 184.309 60.4297C183.895 61 183.379 61.4453 182.762 61.7656C182.152 62.0781 181.434 62.2344 180.605 62.2344C179.832 62.2344 179.16 62.0781 178.59 61.7656C178.027 61.4531 177.555 61.0117 177.172 60.4414C176.789 59.8711 176.48 59.2031 176.246 58.4375C176.012 57.6719 175.836 56.8359 175.719 55.9297V55.3906C175.836 54.4844 176.012 53.6484 176.246 52.8828C176.48 52.1172 176.789 51.4492 177.172 50.8789C177.555 50.3086 178.027 49.8672 178.59 49.5547C179.152 49.2422 179.816 49.0859 180.582 49.0859C181.418 49.0859 182.145 49.2461 182.762 49.5664C183.387 49.8789 183.902 50.3242 184.309 50.9023C184.723 51.4727 185.027 52.1523 185.223 52.9414C185.426 53.7227 185.527 54.5859 185.527 55.5312ZM182.152 55.7773V55.5312C182.152 55.0156 182.113 54.5312 182.035 54.0781C181.965 53.6172 181.84 53.2148 181.66 52.8711C181.48 52.5195 181.234 52.2422 180.922 52.0391C180.617 51.8359 180.223 51.7344 179.738 51.7344C179.277 51.7344 178.887 51.8125 178.566 51.9688C178.246 52.125 177.98 52.3438 177.77 52.625C177.566 52.9062 177.414 53.2422 177.312 53.6328C177.211 54.0156 177.148 54.4375 177.125 54.8984V56.4336C177.148 57.0508 177.25 57.5977 177.43 58.0742C177.617 58.543 177.898 58.9141 178.273 59.1875C178.656 59.4531 179.152 59.5859 179.762 59.5859C180.238 59.5859 180.633 59.4922 180.945 59.3047C181.258 59.1172 181.5 58.8516 181.672 58.5078C181.852 58.1641 181.977 57.7617 182.047 57.3008C182.117 56.832 182.152 56.3242 182.152 55.7773ZM191.188 44V62H187.801V44H191.188ZM199.812 62.2344C198.828 62.2344 197.945 62.0781 197.164 61.7656C196.383 61.4453 195.719 61.0039 195.172 60.4414C194.633 59.8789 194.219 59.2266 193.93 58.4844C193.641 57.7344 193.496 56.9375 193.496 56.0938V55.625C193.496 54.6641 193.633 53.7852 193.906 52.9883C194.18 52.1914 194.57 51.5 195.078 50.9141C195.594 50.3281 196.219 49.8789 196.953 49.5664C197.688 49.2461 198.516 49.0859 199.438 49.0859C200.336 49.0859 201.133 49.2344 201.828 49.5312C202.523 49.8281 203.105 50.25 203.574 50.7969C204.051 51.3438 204.41 52 204.652 52.7656C204.895 53.5234 205.016 54.3672 205.016 55.2969V56.7031H194.938V54.4531H201.699V54.1953C201.699 53.7266 201.613 53.3086 201.441 52.9414C201.277 52.5664 201.027 52.2695 200.691 52.0508C200.355 51.832 199.926 51.7227 199.402 51.7227C198.957 51.7227 198.574 51.8203 198.254 52.0156C197.934 52.2109 197.672 52.4844 197.469 52.8359C197.273 53.1875 197.125 53.6016 197.023 54.0781C196.93 54.5469 196.883 55.0625 196.883 55.625V56.0938C196.883 56.6016 196.953 57.0703 197.094 57.5C197.242 57.9297 197.449 58.3008 197.715 58.6133C197.988 58.9258 198.316 59.168 198.699 59.3398C199.09 59.5117 199.531 59.5977 200.023 59.5977C200.633 59.5977 201.199 59.4805 201.723 59.2461C202.254 59.0039 202.711 58.6406 203.094 58.1562L204.734 59.9375C204.469 60.3203 204.105 60.6875 203.645 61.0391C203.191 61.3906 202.645 61.6797 202.004 61.9062C201.363 62.125 200.633 62.2344 199.812 62.2344Z" fill="#888888"/>
<path d="M115.994 98.708V104.641H99.5806V98.708H115.994ZM102.151 86.0078V118H94.439V86.0078H102.151ZM121.18 86.0078V118H113.489V86.0078H121.18ZM124.805 106.354V105.893C124.805 104.15 125.054 102.546 125.552 101.081C126.05 99.6016 126.783 98.3198 127.75 97.2358C128.716 96.1519 129.91 95.3096 131.331 94.709C132.752 94.0938 134.393 93.7861 136.253 93.7861C138.128 93.7861 139.776 94.0938 141.197 94.709C142.632 95.3096 143.833 96.1519 144.8 97.2358C145.767 98.3198 146.5 99.6016 146.998 101.081C147.496 102.546 147.745 104.15 147.745 105.893V106.354C147.745 108.083 147.496 109.687 146.998 111.167C146.5 112.631 145.767 113.913 144.8 115.012C143.833 116.096 142.64 116.938 141.219 117.539C139.798 118.139 138.157 118.439 136.297 118.439C134.437 118.439 132.789 118.139 131.353 117.539C129.917 116.938 128.716 116.096 127.75 115.012C126.783 113.913 126.05 112.631 125.552 111.167C125.054 109.687 124.805 108.083 124.805 106.354ZM132.21 105.893V106.354C132.21 107.248 132.276 108.083 132.408 108.859C132.54 109.636 132.759 110.317 133.067 110.903C133.375 111.474 133.792 111.921 134.319 112.243C134.847 112.565 135.506 112.727 136.297 112.727C137.073 112.727 137.718 112.565 138.23 112.243C138.758 111.921 139.175 111.474 139.483 110.903C139.791 110.317 140.01 109.636 140.142 108.859C140.274 108.083 140.34 107.248 140.34 106.354V105.893C140.34 105.029 140.274 104.216 140.142 103.454C140.01 102.678 139.791 101.997 139.483 101.411C139.175 100.81 138.758 100.341 138.23 100.004C137.703 99.6675 137.044 99.499 136.253 99.499C135.477 99.499 134.825 99.6675 134.297 100.004C133.785 100.341 133.375 100.81 133.067 101.411C132.759 101.997 132.54 102.678 132.408 103.454C132.276 104.216 132.21 105.029 132.21 105.893ZM158.27 110.925L162.664 94.2256H167.3L165.652 102.597L161.302 118H157.588L158.27 110.925ZM156.534 94.2256L159.258 110.793L159.566 118H155.062L149.437 94.2256H156.534ZM171.211 110.441L173.958 94.2256H181.055L175.474 118H170.97L171.211 110.441ZM167.828 94.2256L172.266 110.881L172.947 118H169.19L164.927 102.641L163.345 94.2256H167.828ZM209.466 86.0078V118H201.753V86.0078H209.466ZM219.09 86.0078V91.9624H192.349V86.0078H219.09ZM216.475 106.354V105.893C216.475 104.15 216.724 102.546 217.222 101.081C217.72 99.6016 218.453 98.3198 219.419 97.2358C220.386 96.1519 221.58 95.3096 223.001 94.709C224.422 94.0938 226.062 93.7861 227.923 93.7861C229.798 93.7861 231.446 94.0938 232.867 94.709C234.302 95.3096 235.503 96.1519 236.47 97.2358C237.437 98.3198 238.169 99.6016 238.667 101.081C239.166 102.546 239.415 104.15 239.415 105.893V106.354C239.415 108.083 239.166 109.687 238.667 111.167C238.169 112.631 237.437 113.913 236.47 115.012C235.503 116.096 234.31 116.938 232.889 117.539C231.468 118.139 229.827 118.439 227.967 118.439C226.106 118.439 224.458 118.139 223.023 117.539C221.587 116.938 220.386 116.096 219.419 115.012C218.453 113.913 217.72 112.631 217.222 111.167C216.724 109.687 216.475 108.083 216.475 106.354ZM223.88 105.893V106.354C223.88 107.248 223.946 108.083 224.078 108.859C224.209 109.636 224.429 110.317 224.737 110.903C225.044 111.474 225.462 111.921 225.989 112.243C226.517 112.565 227.176 112.727 227.967 112.727C228.743 112.727 229.388 112.565 229.9 112.243C230.428 111.921 230.845 111.474 231.153 110.903C231.46 110.317 231.68 109.636 231.812 108.859C231.944 108.083 232.01 107.248 232.01 106.354V105.893C232.01 105.029 231.944 104.216 231.812 103.454C231.68 102.678 231.46 101.997 231.153 101.411C230.845 100.81 230.428 100.341 229.9 100.004C229.373 99.6675 228.714 99.499 227.923 99.499C227.146 99.499 226.495 99.6675 225.967 100.004C225.455 100.341 225.044 100.81 224.737 101.411C224.429 101.997 224.209 102.678 224.078 103.454C223.946 104.216 223.88 105.029 223.88 105.893ZM254.268 86.0078H266.858C269.319 86.0078 271.458 86.374 273.274 87.1064C275.091 87.8389 276.49 88.9229 277.471 90.3584C278.467 91.7939 278.965 93.5664 278.965 95.6758C278.965 97.5068 278.68 99.0376 278.108 100.268C277.537 101.499 276.739 102.517 275.713 103.322C274.703 104.113 273.523 104.765 272.176 105.278L269.649 106.706H259.08L259.036 100.751H266.858C267.84 100.751 268.653 100.576 269.297 100.224C269.942 99.8726 270.425 99.3745 270.748 98.73C271.084 98.0708 271.253 97.2871 271.253 96.3789C271.253 95.4561 271.084 94.665 270.748 94.0059C270.411 93.3467 269.913 92.8413 269.253 92.4897C268.609 92.1382 267.811 91.9624 266.858 91.9624H261.98V118H254.268V86.0078ZM271.78 118L264.705 103.85L272.879 103.806L280.042 117.67V118H271.78ZM297.159 112.221V94.2256H304.585V118H297.642L297.159 112.221ZM297.862 107.387L299.795 107.343C299.795 108.94 299.605 110.419 299.224 111.782C298.843 113.129 298.279 114.301 297.532 115.297C296.8 116.293 295.892 117.07 294.808 117.626C293.738 118.168 292.5 118.439 291.094 118.439C289.922 118.439 288.846 118.278 287.864 117.956C286.897 117.619 286.062 117.099 285.359 116.396C284.656 115.678 284.107 114.763 283.711 113.649C283.331 112.521 283.14 111.174 283.14 109.606V94.2256H290.545V109.65C290.545 110.178 290.611 110.632 290.743 111.013C290.875 111.394 291.065 111.716 291.314 111.979C291.563 112.229 291.871 112.419 292.237 112.551C292.618 112.668 293.05 112.727 293.533 112.727C294.646 112.727 295.518 112.492 296.148 112.023C296.778 111.555 297.217 110.917 297.466 110.112C297.73 109.306 297.862 108.398 297.862 107.387ZM315.945 99.3013V118H308.541V94.2256H315.484L315.945 99.3013ZM315.066 105.3L313.331 105.344C313.331 103.527 313.55 101.909 313.99 100.488C314.429 99.0522 315.052 97.8364 315.857 96.8403C316.663 95.8442 317.623 95.0898 318.736 94.5771C319.864 94.0498 321.116 93.7861 322.493 93.7861C323.592 93.7861 324.595 93.9473 325.503 94.2695C326.426 94.5918 327.217 95.1118 327.876 95.8296C328.55 96.5474 329.063 97.4995 329.415 98.686C329.781 99.8579 329.964 101.308 329.964 103.037V118H322.515V103.015C322.515 102.062 322.383 101.337 322.12 100.839C321.856 100.327 321.475 99.9751 320.977 99.7847C320.479 99.5942 319.871 99.499 319.153 99.499C318.392 99.499 317.747 99.6455 317.22 99.9385C316.692 100.231 316.268 100.642 315.945 101.169C315.638 101.682 315.411 102.29 315.264 102.993C315.132 103.696 315.066 104.465 315.066 105.3ZM345.85 107.871H339.544C339.544 106.582 339.632 105.446 339.808 104.465C339.998 103.469 340.32 102.575 340.774 101.784C341.229 100.993 341.844 100.261 342.62 99.5869C343.309 99.0156 343.902 98.4663 344.4 97.939C344.898 97.4116 345.279 96.877 345.542 96.335C345.806 95.793 345.938 95.2144 345.938 94.5991C345.938 93.8374 345.828 93.2148 345.608 92.7314C345.403 92.248 345.088 91.8892 344.664 91.6548C344.253 91.4058 343.733 91.2812 343.104 91.2812C342.591 91.2812 342.107 91.4058 341.653 91.6548C341.214 91.9038 340.855 92.292 340.577 92.8193C340.298 93.332 340.145 94.0132 340.115 94.8628H332.667C332.71 92.6802 333.194 90.9077 334.117 89.5454C335.054 88.1685 336.299 87.165 337.852 86.5352C339.419 85.8906 341.17 85.5684 343.104 85.5684C345.242 85.5684 347.081 85.8979 348.619 86.5571C350.157 87.2163 351.336 88.1978 352.156 89.5015C352.977 90.7905 353.387 92.3799 353.387 94.2695C353.387 95.5293 353.145 96.6279 352.662 97.5654C352.193 98.4883 351.556 99.3525 350.75 100.158C349.959 100.949 349.073 101.799 348.091 102.707C347.242 103.454 346.663 104.216 346.355 104.992C346.048 105.754 345.879 106.713 345.85 107.871ZM338.643 114.55C338.643 113.496 339.024 112.617 339.786 111.914C340.547 111.196 341.536 110.837 342.752 110.837C343.968 110.837 344.957 111.196 345.718 111.914C346.48 112.617 346.861 113.496 346.861 114.55C346.861 115.605 346.48 116.491 345.718 117.209C344.957 117.912 343.968 118.264 342.752 118.264C341.536 118.264 340.547 117.912 339.786 117.209C339.024 116.491 338.643 115.605 338.643 114.55Z" fill="#424241"/>
<path d="M1363 15C1363 6.71573 1356.28 0 1348 0H1134V167H1348C1356.28 167 1363 160.284 1363 152V15Z" fill="#FDCF70"/>
<path d="M1260.77 81.3079C1263.96 81.3079 1267.09 82.2553 1269.74 84.0303C1272.4 85.8053 1274.47 88.3282 1275.69 91.2799C1276.92 94.2316 1277.24 97.4796 1276.61 100.613C1275.99 103.747 1274.45 106.625 1272.19 108.884C1269.93 111.143 1267.05 112.682 1263.92 113.305C1260.79 113.928 1257.54 113.608 1254.59 112.386C1251.64 111.163 1249.11 109.093 1247.34 106.436C1245.56 103.78 1244.62 100.657 1244.62 97.4617C1244.62 93.1774 1246.32 89.0686 1249.35 86.0392C1252.38 83.0098 1256.48 81.3079 1260.77 81.3079ZM1260.77 75.9233C1256.51 75.9233 1252.35 77.1865 1248.8 79.5532C1245.26 81.9198 1242.5 85.2837 1240.87 89.2193C1239.24 93.1549 1238.81 97.4856 1239.64 101.664C1240.48 105.842 1242.53 109.679 1245.54 112.692C1248.55 115.704 1252.39 117.755 1256.57 118.586C1260.75 119.417 1265.08 118.991 1269.01 117.361C1272.95 115.73 1276.31 112.97 1278.68 109.428C1281.04 105.886 1282.31 101.722 1282.31 97.4617C1282.31 91.7493 1280.04 86.271 1276 82.2317C1271.96 78.1925 1266.48 75.9233 1260.77 75.9233Z" fill="white"/>
<path d="M1274.23 49H1220.38C1218.96 49 1217.59 49.5673 1216.58 50.5771C1215.57 51.5869 1215 52.9565 1215 54.3846V108.231C1215 109.659 1215.57 111.028 1216.58 112.038C1217.59 113.048 1218.96 113.615 1220.38 113.615H1231.15V108.231H1220.38V70.5384H1279.62V54.3846C1279.62 52.9565 1279.05 51.5869 1278.04 50.5771C1277.03 49.5673 1275.66 49 1274.23 49ZM1220.38 65.1538V54.3846H1274.23V65.1538H1220.38Z" fill="white"/>
<path d="M1255.38 89.3849V105.539L1268.85 97.4618L1255.38 89.3849Z" fill="white"/>
</svg>
