<svg width="1363" height="301" viewBox="0 0 1363 301" fill="none" xmlns="http://www.w3.org/2000/svg">
<rect width="1363" height="301" rx="15" fill="#F0F0F0"/>
<path d="M0 15C0 6.71573 6.71573 0 15 0H37V301H15C6.71573 301 0 294.284 0 286V15Z" fill="#FDBE3B"/>
<path d="M104.407 104.898V144H94.981V104.898H104.407ZM119.607 121.173V128.424H101.722V121.173H119.607ZM121.138 104.898V112.176H101.722V104.898H121.138ZM133.062 122.14V144H124.012V114.942H132.471L133.062 122.14ZM141.656 114.728L141.495 123.133C141.137 123.097 140.653 123.053 140.044 122.999C139.436 122.945 138.925 122.918 138.514 122.918C137.457 122.918 136.544 123.044 135.774 123.294C135.022 123.527 134.396 123.885 133.895 124.369C133.411 124.834 133.053 125.425 132.82 126.141C132.605 126.857 132.507 127.69 132.525 128.639L130.887 127.564C130.887 125.613 131.075 123.84 131.451 122.247C131.845 120.636 132.4 119.248 133.116 118.084C133.832 116.903 134.7 115.999 135.721 115.372C136.741 114.728 137.887 114.405 139.158 114.405C139.606 114.405 140.044 114.432 140.474 114.486C140.922 114.54 141.316 114.62 141.656 114.728ZM161.744 136.937V114.942H170.821V144H162.334L161.744 136.937ZM162.603 131.029L164.966 130.975C164.966 132.927 164.734 134.735 164.268 136.4C163.803 138.047 163.113 139.479 162.2 140.697C161.305 141.914 160.195 142.863 158.87 143.543C157.563 144.206 156.05 144.537 154.332 144.537C152.899 144.537 151.583 144.34 150.384 143.946C149.202 143.535 148.182 142.899 147.322 142.04C146.463 141.162 145.792 140.043 145.308 138.683C144.843 137.304 144.61 135.657 144.61 133.741V114.942H153.66V133.795C153.66 134.439 153.741 134.994 153.902 135.46C154.063 135.925 154.296 136.319 154.6 136.642C154.904 136.946 155.28 137.179 155.728 137.34C156.194 137.483 156.722 137.555 157.312 137.555C158.673 137.555 159.738 137.268 160.508 136.695C161.278 136.122 161.815 135.344 162.12 134.359C162.442 133.374 162.603 132.264 162.603 131.029ZM185.376 114.942V144H176.299V114.942H185.376ZM175.762 107.45C175.762 106.161 176.228 105.104 177.159 104.281C178.09 103.457 179.298 103.045 180.784 103.045C182.27 103.045 183.479 103.457 184.41 104.281C185.341 105.104 185.806 106.161 185.806 107.45C185.806 108.739 185.341 109.795 184.41 110.619C183.479 111.442 182.27 111.854 180.784 111.854C179.298 111.854 178.09 111.442 177.159 110.619C176.228 109.795 175.762 108.739 175.762 107.45ZM206.27 114.942V121.227H188.76V114.942H206.27ZM192.439 107.718H201.49V134.52C201.49 135.29 201.579 135.89 201.758 136.319C201.937 136.731 202.242 137.027 202.671 137.206C203.119 137.367 203.71 137.447 204.444 137.447C204.963 137.447 205.393 137.438 205.733 137.42C206.073 137.385 206.395 137.34 206.7 137.286V143.758C205.93 144.009 205.124 144.197 204.283 144.322C203.441 144.465 202.546 144.537 201.597 144.537C199.664 144.537 198.007 144.233 196.629 143.624C195.268 143.015 194.23 142.057 193.514 140.75C192.798 139.444 192.439 137.743 192.439 135.648V107.718ZM224.961 136.695V124.718C224.961 123.894 224.845 123.187 224.612 122.596C224.38 122.005 224.013 121.549 223.511 121.227C223.01 120.886 222.339 120.716 221.497 120.716C220.817 120.716 220.235 120.833 219.751 121.065C219.268 121.298 218.901 121.647 218.65 122.113C218.4 122.578 218.274 123.169 218.274 123.885H209.224C209.224 122.542 209.52 121.298 210.11 120.152C210.719 118.989 211.578 117.977 212.688 117.118C213.816 116.258 215.159 115.596 216.717 115.13C218.292 114.647 220.047 114.405 221.98 114.405C224.29 114.405 226.349 114.79 228.157 115.56C229.983 116.33 231.425 117.485 232.481 119.024C233.537 120.546 234.065 122.462 234.065 124.771V136.668C234.065 138.566 234.173 140.007 234.388 140.992C234.603 141.959 234.907 142.809 235.301 143.543V144H226.224C225.794 143.105 225.472 142.013 225.257 140.724C225.06 139.417 224.961 138.074 224.961 136.695ZM226.062 126.249L226.116 131.083H222.115C221.273 131.083 220.557 131.199 219.966 131.432C219.393 131.664 218.928 131.987 218.57 132.398C218.23 132.792 217.979 133.24 217.818 133.741C217.675 134.243 217.603 134.771 217.603 135.326C217.603 135.863 217.728 136.346 217.979 136.776C218.248 137.188 218.606 137.51 219.053 137.743C219.501 137.975 220.002 138.092 220.557 138.092C221.56 138.092 222.41 137.904 223.108 137.528C223.825 137.134 224.371 136.66 224.747 136.104C225.123 135.549 225.311 135.03 225.311 134.547L227.298 138.253C226.94 138.969 226.528 139.694 226.062 140.428C225.615 141.162 225.051 141.843 224.371 142.469C223.708 143.078 222.894 143.579 221.927 143.973C220.96 144.349 219.787 144.537 218.409 144.537C216.618 144.537 214.971 144.17 213.467 143.436C211.981 142.702 210.791 141.681 209.896 140.375C209 139.05 208.553 137.528 208.553 135.809C208.553 134.305 208.821 132.962 209.358 131.781C209.913 130.599 210.746 129.597 211.856 128.773C212.966 127.949 214.38 127.323 216.099 126.893C217.818 126.463 219.841 126.249 222.168 126.249H226.062ZM239.168 102.75H248.218V136.856L247.278 144H239.168V102.75ZM266.05 129.149V129.713C266.05 131.915 265.826 133.92 265.379 135.729C264.931 137.537 264.242 139.103 263.311 140.428C262.38 141.735 261.207 142.747 259.793 143.463C258.379 144.179 256.705 144.537 254.771 144.537C253.016 144.537 251.513 144.161 250.259 143.409C249.006 142.639 247.959 141.583 247.117 140.24C246.276 138.88 245.595 137.313 245.076 135.541C244.557 133.75 244.145 131.834 243.841 129.793V129.122C244.145 127.099 244.557 125.201 245.076 123.429C245.595 121.638 246.276 120.072 247.117 118.729C247.959 117.368 248.997 116.312 250.232 115.56C251.486 114.79 252.981 114.405 254.717 114.405C256.669 114.405 258.352 114.772 259.766 115.506C261.198 116.24 262.38 117.27 263.311 118.595C264.242 119.92 264.931 121.477 265.379 123.268C265.826 125.058 266.05 127.018 266.05 129.149ZM257 129.713V129.149C257 128.093 256.937 127.099 256.812 126.168C256.687 125.237 256.463 124.413 256.141 123.697C255.818 122.981 255.362 122.417 254.771 122.005C254.18 121.594 253.41 121.388 252.461 121.388C251.495 121.388 250.68 121.549 250.018 121.871C249.373 122.193 248.854 122.659 248.46 123.268C248.084 123.858 247.815 124.592 247.654 125.47C247.493 126.329 247.422 127.305 247.439 128.397V130.519C247.404 132.005 247.538 133.276 247.842 134.332C248.147 135.388 248.675 136.194 249.427 136.749C250.179 137.304 251.208 137.582 252.515 137.582C253.482 137.582 254.261 137.394 254.852 137.018C255.46 136.642 255.917 136.104 256.221 135.406C256.526 134.708 256.731 133.875 256.839 132.909C256.946 131.942 257 130.877 257 129.713ZM279.639 102.75V144H270.562V102.75H279.639ZM299.297 144.537C296.934 144.537 294.821 144.17 292.959 143.436C291.097 142.684 289.522 141.655 288.233 140.348C286.962 139.041 285.986 137.537 285.306 135.836C284.643 134.135 284.312 132.336 284.312 130.438V129.417C284.312 127.287 284.607 125.318 285.198 123.509C285.789 121.683 286.666 120.09 287.83 118.729C288.994 117.368 290.453 116.312 292.208 115.56C293.962 114.79 296.003 114.405 298.331 114.405C300.389 114.405 302.234 114.736 303.863 115.399C305.492 116.061 306.871 117.01 307.999 118.246C309.144 119.481 310.013 120.976 310.604 122.73C311.212 124.485 311.517 126.454 311.517 128.639V132.318H287.776V126.651H302.681V125.953C302.699 124.986 302.529 124.163 302.171 123.482C301.831 122.802 301.329 122.283 300.667 121.925C300.005 121.567 299.199 121.388 298.25 121.388C297.265 121.388 296.451 121.603 295.806 122.032C295.18 122.462 294.687 123.053 294.329 123.805C293.989 124.539 293.747 125.389 293.604 126.356C293.461 127.323 293.389 128.343 293.389 129.417V130.438C293.389 131.512 293.532 132.488 293.819 133.365C294.123 134.243 294.553 134.994 295.108 135.621C295.681 136.23 296.361 136.704 297.149 137.044C297.955 137.385 298.868 137.555 299.888 137.555C301.124 137.555 302.341 137.322 303.541 136.856C304.74 136.391 305.77 135.621 306.629 134.547L310.738 139.435C310.147 140.276 309.306 141.091 308.213 141.878C307.139 142.666 305.85 143.311 304.346 143.812C302.842 144.295 301.159 144.537 299.297 144.537Z" fill="black"/>
<path d="M110.816 65.2515V69.2505H97.8276V65.2515H110.816ZM99.3486 55.1172V80H94.2217V55.1172H99.3486ZM114.473 55.1172V80H109.363V55.1172H114.473ZM128.606 75.8301V67.5928C128.606 67.0003 128.51 66.4933 128.316 66.0718C128.122 65.6388 127.82 65.3027 127.41 65.0635C127.011 64.8242 126.493 64.7046 125.855 64.7046C125.308 64.7046 124.835 64.8014 124.437 64.9951C124.038 65.1774 123.73 65.4451 123.514 65.7983C123.297 66.1401 123.189 66.5446 123.189 67.0117H118.267C118.267 66.2256 118.449 65.4793 118.814 64.7729C119.179 64.0666 119.708 63.4456 120.403 62.9102C121.098 62.3633 121.924 61.936 122.881 61.6284C123.85 61.3208 124.932 61.167 126.128 61.167C127.564 61.167 128.84 61.4062 129.957 61.8848C131.073 62.3633 131.95 63.0811 132.588 64.0381C133.238 64.9951 133.562 66.1914 133.562 67.627V75.5396C133.562 76.5535 133.625 77.3853 133.75 78.0347C133.876 78.6727 134.058 79.231 134.297 79.7095V80H129.324C129.085 79.4987 128.903 78.8721 128.777 78.1201C128.663 77.3568 128.606 76.5934 128.606 75.8301ZM129.256 68.7378L129.29 71.5234H126.539C125.889 71.5234 125.325 71.5975 124.847 71.7456C124.368 71.8937 123.975 72.1045 123.667 72.3779C123.36 72.64 123.132 72.9476 122.984 73.3008C122.847 73.654 122.779 74.0413 122.779 74.4629C122.779 74.8844 122.876 75.2661 123.069 75.6079C123.263 75.9383 123.542 76.2004 123.907 76.394C124.271 76.5763 124.699 76.6675 125.188 76.6675C125.929 76.6675 126.573 76.5194 127.12 76.2231C127.667 75.9269 128.088 75.5623 128.384 75.1294C128.692 74.6965 128.851 74.2863 128.863 73.8989L130.162 75.9839C129.979 76.451 129.729 76.9352 129.41 77.4365C129.102 77.9378 128.709 78.4106 128.23 78.855C127.752 79.2879 127.177 79.6468 126.504 79.9316C125.832 80.2051 125.035 80.3418 124.112 80.3418C122.938 80.3418 121.873 80.1082 120.916 79.6411C119.97 79.1626 119.218 78.5075 118.66 77.6758C118.113 76.8327 117.84 75.8757 117.84 74.8047C117.84 73.8363 118.022 72.9761 118.387 72.2241C118.751 71.4722 119.287 70.8398 119.993 70.3271C120.711 69.8031 121.605 69.41 122.676 69.1479C123.747 68.8745 124.989 68.7378 126.402 68.7378H129.256ZM148.277 75.9668V53.75H153.233V80H148.772L148.277 75.9668ZM136.587 70.9766V70.6177C136.587 69.2049 136.747 67.9232 137.066 66.7725C137.385 65.6104 137.852 64.6134 138.467 63.7817C139.083 62.95 139.84 62.3063 140.74 61.8506C141.64 61.3949 142.666 61.167 143.816 61.167C144.899 61.167 145.844 61.3949 146.653 61.8506C147.474 62.3063 148.169 62.9557 148.738 63.7988C149.319 64.6305 149.786 65.616 150.14 66.7554C150.493 67.8833 150.749 69.1195 150.909 70.4639V71.25C150.749 72.5374 150.493 73.7337 150.14 74.8389C149.786 75.944 149.319 76.9124 148.738 77.7441C148.169 78.5645 147.474 79.2025 146.653 79.6582C145.833 80.1139 144.876 80.3418 143.782 80.3418C142.632 80.3418 141.606 80.1082 140.706 79.6411C139.817 79.174 139.065 78.5189 138.45 77.6758C137.846 76.8327 137.385 75.8415 137.066 74.7021C136.747 73.5628 136.587 72.321 136.587 70.9766ZM141.509 70.6177V70.9766C141.509 71.7399 141.566 72.452 141.68 73.1128C141.806 73.7736 142.005 74.3604 142.278 74.873C142.563 75.3743 142.928 75.7674 143.372 76.0522C143.828 76.3257 144.38 76.4624 145.03 76.4624C145.873 76.4624 146.568 76.2744 147.115 75.8984C147.662 75.5111 148.077 74.9813 148.362 74.3091C148.659 73.6369 148.829 72.8621 148.875 71.9849V69.7461C148.841 69.0283 148.738 68.3846 148.567 67.8149C148.408 67.2339 148.169 66.7383 147.85 66.3281C147.542 65.918 147.155 65.599 146.688 65.3711C146.232 65.1432 145.691 65.0293 145.064 65.0293C144.426 65.0293 143.879 65.1774 143.423 65.4736C142.968 65.7585 142.597 66.1515 142.312 66.6528C142.039 67.1541 141.834 67.7466 141.697 68.4302C141.572 69.1024 141.509 69.8315 141.509 70.6177ZM162.273 61.5088V80H157.334V61.5088H162.273ZM157.027 56.6895C157.027 55.9717 157.278 55.3792 157.779 54.9121C158.28 54.445 158.952 54.2114 159.795 54.2114C160.627 54.2114 161.294 54.445 161.795 54.9121C162.308 55.3792 162.564 55.9717 162.564 56.6895C162.564 57.4072 162.308 57.9997 161.795 58.4668C161.294 58.9339 160.627 59.1675 159.795 59.1675C158.952 59.1675 158.28 58.9339 157.779 58.4668C157.278 57.9997 157.027 57.4072 157.027 56.6895ZM185.481 59.3726L178.714 80H173.262L182.508 55.1172H185.977L185.481 59.3726ZM191.104 80L184.319 59.3726L183.772 55.1172H187.276L196.573 80H191.104ZM190.796 70.7373V74.7534H177.654V70.7373H190.796ZM203.768 53.75V80H198.829V53.75H203.768ZM213.27 55.1172V80H208.143V55.1172H213.27ZM228.172 55.1172L218.311 67.4048L212.62 73.5229L211.697 68.6694L215.542 63.4058L221.883 55.1172H228.172ZM222.344 80L215.013 68.4985L218.807 65.3198L228.411 80H222.344ZM240.066 75.8301V67.5928C240.066 67.0003 239.97 66.4933 239.776 66.0718C239.582 65.6388 239.28 65.3027 238.87 65.0635C238.471 64.8242 237.953 64.7046 237.315 64.7046C236.768 64.7046 236.295 64.8014 235.896 64.9951C235.498 65.1774 235.19 65.4451 234.974 65.7983C234.757 66.1401 234.649 66.5446 234.649 67.0117H229.727C229.727 66.2256 229.909 65.4793 230.274 64.7729C230.639 64.0666 231.168 63.4456 231.863 62.9102C232.558 62.3633 233.384 61.936 234.341 61.6284C235.31 61.3208 236.392 61.167 237.588 61.167C239.024 61.167 240.3 61.4062 241.417 61.8848C242.533 62.3633 243.41 63.0811 244.048 64.0381C244.698 64.9951 245.022 66.1914 245.022 67.627V75.5396C245.022 76.5535 245.085 77.3853 245.21 78.0347C245.336 78.6727 245.518 79.231 245.757 79.7095V80H240.784C240.545 79.4987 240.363 78.8721 240.237 78.1201C240.123 77.3568 240.066 76.5934 240.066 75.8301ZM240.716 68.7378L240.75 71.5234H237.999C237.349 71.5234 236.785 71.5975 236.307 71.7456C235.828 71.8937 235.435 72.1045 235.127 72.3779C234.82 72.64 234.592 72.9476 234.444 73.3008C234.307 73.654 234.239 74.0413 234.239 74.4629C234.239 74.8844 234.336 75.2661 234.529 75.6079C234.723 75.9383 235.002 76.2004 235.367 76.394C235.731 76.5763 236.159 76.6675 236.648 76.6675C237.389 76.6675 238.033 76.5194 238.58 76.2231C239.126 75.9269 239.548 75.5623 239.844 75.1294C240.152 74.6965 240.311 74.2863 240.323 73.8989L241.622 75.9839C241.439 76.451 241.189 76.9352 240.87 77.4365C240.562 77.9378 240.169 78.4106 239.69 78.855C239.212 79.2879 238.637 79.6468 237.964 79.9316C237.292 80.2051 236.495 80.3418 235.572 80.3418C234.398 80.3418 233.333 80.1082 232.376 79.6411C231.43 79.1626 230.678 78.5075 230.12 77.6758C229.573 76.8327 229.3 75.8757 229.3 74.8047C229.3 73.8363 229.482 72.9761 229.847 72.2241C230.211 71.4722 230.747 70.8398 231.453 70.3271C232.171 69.8031 233.065 69.41 234.136 69.1479C235.207 68.8745 236.449 68.7378 237.862 68.7378H240.716ZM253.738 65.3369V80H248.799V61.5088H253.431L253.738 65.3369ZM253.055 70.105H251.688C251.688 68.8175 251.841 67.6326 252.149 66.5503C252.468 65.4565 252.929 64.5109 253.533 63.7134C254.148 62.9045 254.906 62.2778 255.806 61.8335C256.706 61.3892 257.749 61.167 258.934 61.167C259.754 61.167 260.506 61.2923 261.189 61.543C261.873 61.7822 262.46 62.1639 262.95 62.688C263.451 63.2007 263.838 63.8729 264.112 64.7046C264.385 65.5249 264.522 66.5104 264.522 67.6611V80H259.6V68.208C259.6 67.3649 259.486 66.7155 259.258 66.2598C259.03 65.804 258.706 65.485 258.284 65.3027C257.874 65.1204 257.378 65.0293 256.797 65.0293C256.159 65.0293 255.601 65.1603 255.123 65.4224C254.655 65.6844 254.268 66.049 253.96 66.5161C253.653 66.9718 253.425 67.5073 253.277 68.1226C253.129 68.7378 253.055 69.3986 253.055 70.105ZM264.061 69.541L262.3 69.7632C262.3 68.5555 262.448 67.4333 262.745 66.3965C263.052 65.3597 263.502 64.4482 264.095 63.6621C264.699 62.876 265.445 62.2664 266.333 61.8335C267.222 61.3892 268.248 61.167 269.41 61.167C270.298 61.167 271.107 61.298 271.836 61.5601C272.566 61.8107 273.187 62.2152 273.699 62.7734C274.223 63.3203 274.622 64.0381 274.896 64.9268C275.18 65.8154 275.323 66.9035 275.323 68.1909V80H270.384V68.1909C270.384 67.3364 270.27 66.687 270.042 66.2427C269.826 65.7869 269.507 65.4736 269.085 65.3027C268.675 65.1204 268.185 65.0293 267.615 65.0293C267.023 65.0293 266.504 65.1489 266.06 65.3882C265.616 65.616 265.245 65.9351 264.949 66.3452C264.653 66.7554 264.431 67.2339 264.283 67.7808C264.135 68.3162 264.061 68.903 264.061 69.541ZM284.056 65.3369V80H279.117V61.5088H283.748L284.056 65.3369ZM283.372 70.105H282.005C282.005 68.8175 282.159 67.6326 282.466 66.5503C282.785 65.4565 283.247 64.5109 283.851 63.7134C284.466 62.9045 285.223 62.2778 286.124 61.8335C287.024 61.3892 288.066 61.167 289.251 61.167C290.071 61.167 290.823 61.2923 291.507 61.543C292.19 61.7822 292.777 62.1639 293.267 62.688C293.768 63.2007 294.156 63.8729 294.429 64.7046C294.703 65.5249 294.839 66.5104 294.839 67.6611V80H289.917V68.208C289.917 67.3649 289.804 66.7155 289.576 66.2598C289.348 65.804 289.023 65.485 288.602 65.3027C288.191 65.1204 287.696 65.0293 287.115 65.0293C286.477 65.0293 285.918 65.1603 285.44 65.4224C284.973 65.6844 284.585 66.049 284.278 66.5161C283.97 66.9718 283.742 67.5073 283.594 68.1226C283.446 68.7378 283.372 69.3986 283.372 70.105ZM294.378 69.541L292.618 69.7632C292.618 68.5555 292.766 67.4333 293.062 66.3965C293.37 65.3597 293.82 64.4482 294.412 63.6621C295.016 62.876 295.762 62.2664 296.651 61.8335C297.54 61.3892 298.565 61.167 299.727 61.167C300.616 61.167 301.425 61.298 302.154 61.5601C302.883 61.8107 303.504 62.2152 304.017 62.7734C304.541 63.3203 304.939 64.0381 305.213 64.9268C305.498 65.8154 305.64 66.9035 305.64 68.1909V80H300.701V68.1909C300.701 67.3364 300.587 66.687 300.359 66.2427C300.143 65.7869 299.824 65.4736 299.402 65.3027C298.992 65.1204 298.502 65.0293 297.933 65.0293C297.34 65.0293 296.822 65.1489 296.377 65.3882C295.933 65.616 295.563 65.9351 295.267 66.3452C294.97 66.7554 294.748 67.2339 294.6 67.7808C294.452 68.3162 294.378 68.903 294.378 69.541ZM308.665 70.9424V70.5835C308.665 69.2277 308.859 67.9801 309.246 66.8408C309.633 65.6901 310.197 64.6932 310.938 63.8501C311.679 63.007 312.59 62.3519 313.672 61.8848C314.755 61.4062 315.997 61.167 317.398 61.167C318.799 61.167 320.047 61.4062 321.141 61.8848C322.234 62.3519 323.152 63.007 323.892 63.8501C324.644 64.6932 325.214 65.6901 325.601 66.8408C325.988 67.9801 326.182 69.2277 326.182 70.5835V70.9424C326.182 72.2868 325.988 73.5343 325.601 74.6851C325.214 75.8244 324.644 76.8213 323.892 77.6758C323.152 78.5189 322.24 79.174 321.158 79.6411C320.075 80.1082 318.833 80.3418 317.432 80.3418C316.031 80.3418 314.783 80.1082 313.689 79.6411C312.607 79.174 311.69 78.5189 310.938 77.6758C310.197 76.8213 309.633 75.8244 309.246 74.6851C308.859 73.5343 308.665 72.2868 308.665 70.9424ZM313.587 70.5835V70.9424C313.587 71.7171 313.655 72.4406 313.792 73.1128C313.929 73.785 314.145 74.3774 314.441 74.8901C314.749 75.3914 315.148 75.7845 315.638 76.0693C316.128 76.3542 316.726 76.4966 317.432 76.4966C318.116 76.4966 318.702 76.3542 319.192 76.0693C319.682 75.7845 320.075 75.3914 320.372 74.8901C320.668 74.3774 320.884 73.785 321.021 73.1128C321.169 72.4406 321.243 71.7171 321.243 70.9424V70.5835C321.243 69.8315 321.169 69.1252 321.021 68.4644C320.884 67.7922 320.662 67.1997 320.354 66.687C320.058 66.1629 319.665 65.7528 319.175 65.4565C318.685 65.1603 318.093 65.0122 317.398 65.0122C316.703 65.0122 316.111 65.1603 315.621 65.4565C315.142 65.7528 314.749 66.1629 314.441 66.687C314.145 67.1997 313.929 67.7922 313.792 68.4644C313.655 69.1252 313.587 69.8315 313.587 70.5835ZM340.145 75.5737V61.5088H345.066V80H340.435L340.145 75.5737ZM340.691 71.7798L342.144 71.7456C342.144 72.9761 342.002 74.1211 341.717 75.1807C341.432 76.2288 341.005 77.1403 340.435 77.915C339.865 78.6784 339.148 79.2765 338.282 79.7095C337.416 80.131 336.396 80.3418 335.223 80.3418C334.323 80.3418 333.491 80.2165 332.728 79.9658C331.976 79.7038 331.326 79.2993 330.779 78.7524C330.244 78.1942 329.822 77.4821 329.515 76.6162C329.218 75.7389 329.07 74.6851 329.07 73.4546V61.5088H333.992V73.4888C333.992 74.0356 334.055 74.4971 334.18 74.873C334.317 75.249 334.505 75.5566 334.744 75.7959C334.983 76.0352 335.263 76.2061 335.582 76.3086C335.912 76.4111 336.277 76.4624 336.675 76.4624C337.689 76.4624 338.487 76.2573 339.068 75.8472C339.66 75.437 340.076 74.8787 340.315 74.1724C340.566 73.4546 340.691 72.6571 340.691 71.7798ZM353.646 65.4565V80H348.724V61.5088H353.338L353.646 65.4565ZM352.928 70.105H351.595C351.595 68.7378 351.771 67.5073 352.125 66.4136C352.478 65.3084 352.973 64.3685 353.611 63.5938C354.249 62.8076 355.007 62.2095 355.884 61.7993C356.773 61.3778 357.764 61.167 358.858 61.167C359.724 61.167 360.516 61.2923 361.233 61.543C361.951 61.7936 362.566 62.1924 363.079 62.7393C363.603 63.2861 364.002 64.0096 364.275 64.9097C364.56 65.8097 364.703 66.9092 364.703 68.208V80H359.747V68.1909C359.747 67.3706 359.633 66.7326 359.405 66.2769C359.177 65.8211 358.841 65.5021 358.396 65.3198C357.964 65.1261 357.428 65.0293 356.79 65.0293C356.129 65.0293 355.554 65.1603 355.064 65.4224C354.585 65.6844 354.187 66.049 353.868 66.5161C353.56 66.9718 353.326 67.5073 353.167 68.1226C353.007 68.7378 352.928 69.3986 352.928 70.105ZM373.641 61.5088V80H368.702V61.5088H373.641ZM368.394 56.6895C368.394 55.9717 368.645 55.3792 369.146 54.9121C369.647 54.445 370.319 54.2114 371.163 54.2114C371.994 54.2114 372.661 54.445 373.162 54.9121C373.675 55.3792 373.931 55.9717 373.931 56.6895C373.931 57.4072 373.675 57.9997 373.162 58.4668C372.661 58.9339 371.994 59.1675 371.163 59.1675C370.319 59.1675 369.647 58.9339 369.146 58.4668C368.645 57.9997 368.394 57.4072 368.394 56.6895Z" fill="#888888"/>
<rect x="92" y="181" width="1179" height="80" rx="13.3333" fill="#CCCCCC"/>
<rect x="107" y="196.333" width="208" height="49.3333" rx="4.66667" fill="#888888" stroke="#888888" stroke-width="4"/>
<path d="M166.656 213.167H169.635L173.021 223.719L176.406 213.167H179.385L174.229 228.333H171.813L166.656 213.167ZM164.844 213.167H167.927L168.5 224.792V228.333H164.844V213.167ZM178.115 213.167H181.208V228.333H177.542V224.792L178.115 213.167ZM182.948 222.812V222.594C182.948 221.767 183.066 221.007 183.302 220.312C183.538 219.611 183.885 219.003 184.344 218.49C184.802 217.976 185.368 217.576 186.042 217.292C186.715 217 187.493 216.854 188.375 216.854C189.264 216.854 190.045 217 190.719 217.292C191.399 217.576 191.969 217.976 192.427 218.49C192.885 219.003 193.233 219.611 193.469 220.312C193.705 221.007 193.823 221.767 193.823 222.594V222.812C193.823 223.632 193.705 224.392 193.469 225.094C193.233 225.788 192.885 226.396 192.427 226.917C191.969 227.431 191.403 227.83 190.729 228.115C190.056 228.399 189.278 228.542 188.396 228.542C187.514 228.542 186.733 228.399 186.052 228.115C185.372 227.83 184.802 227.431 184.344 226.917C183.885 226.396 183.538 225.788 183.302 225.094C183.066 224.392 182.948 223.632 182.948 222.812ZM186.458 222.594V222.812C186.458 223.236 186.49 223.632 186.552 224C186.615 224.368 186.719 224.691 186.865 224.969C187.01 225.24 187.208 225.451 187.458 225.604C187.708 225.757 188.021 225.833 188.396 225.833C188.764 225.833 189.069 225.757 189.313 225.604C189.563 225.451 189.76 225.24 189.906 224.969C190.052 224.691 190.156 224.368 190.219 224C190.281 223.632 190.313 223.236 190.313 222.812V222.594C190.313 222.184 190.281 221.799 190.219 221.437C190.156 221.069 190.052 220.747 189.906 220.469C189.76 220.184 189.563 219.962 189.313 219.802C189.063 219.642 188.75 219.562 188.375 219.562C188.007 219.562 187.698 219.642 187.448 219.802C187.205 219.962 187.01 220.184 186.865 220.469C186.719 220.747 186.615 221.069 186.552 221.437C186.49 221.799 186.458 222.184 186.458 222.594ZM198.833 219.469V228.333H195.323V217.062H198.615L198.833 219.469ZM198.417 222.312L197.594 222.333C197.594 221.472 197.698 220.705 197.906 220.031C198.115 219.351 198.41 218.774 198.792 218.302C199.174 217.83 199.628 217.472 200.156 217.229C200.691 216.979 201.285 216.854 201.938 216.854C202.458 216.854 202.934 216.931 203.365 217.083C203.802 217.236 204.177 217.483 204.49 217.823C204.809 218.163 205.052 218.615 205.219 219.177C205.392 219.733 205.479 220.42 205.479 221.24V228.333H201.948V221.229C201.948 220.778 201.885 220.434 201.76 220.198C201.635 219.955 201.455 219.788 201.219 219.698C200.983 219.608 200.694 219.562 200.354 219.562C199.993 219.562 199.688 219.632 199.438 219.771C199.188 219.91 198.986 220.104 198.833 220.354C198.688 220.597 198.58 220.885 198.51 221.219C198.448 221.552 198.417 221.917 198.417 222.312ZM214.51 217.062H217.698V227.896C217.698 228.937 217.458 229.819 216.979 230.542C216.5 231.271 215.83 231.823 214.969 232.198C214.115 232.58 213.115 232.771 211.969 232.771C211.462 232.771 210.944 232.705 210.417 232.573C209.889 232.448 209.396 232.26 208.938 232.01C208.479 231.76 208.094 231.451 207.781 231.083L209.25 229.021C209.535 229.34 209.892 229.611 210.323 229.833C210.753 230.062 211.26 230.177 211.844 230.177C212.351 230.177 212.774 230.087 213.115 229.906C213.462 229.726 213.726 229.462 213.906 229.115C214.087 228.774 214.177 228.361 214.177 227.875V219.729L214.51 217.062ZM207.021 222.833V222.615C207.021 221.76 207.125 220.983 207.333 220.281C207.549 219.573 207.854 218.965 208.25 218.458C208.653 217.944 209.139 217.549 209.708 217.271C210.278 216.993 210.92 216.854 211.635 216.854C212.406 216.854 213.038 217.003 213.531 217.302C214.031 217.594 214.431 218.003 214.729 218.531C215.035 219.059 215.271 219.677 215.438 220.385C215.611 221.087 215.757 221.844 215.875 222.656V222.917C215.757 223.681 215.594 224.403 215.385 225.083C215.184 225.757 214.92 226.354 214.594 226.875C214.267 227.396 213.858 227.806 213.365 228.104C212.878 228.396 212.295 228.542 211.615 228.542C210.906 228.542 210.267 228.399 209.698 228.115C209.135 227.83 208.653 227.431 208.25 226.917C207.854 226.403 207.549 225.799 207.333 225.104C207.125 224.41 207.021 223.653 207.021 222.833ZM210.531 222.615V222.833C210.531 223.257 210.569 223.649 210.646 224.01C210.729 224.372 210.854 224.691 211.021 224.969C211.188 225.24 211.392 225.451 211.635 225.604C211.885 225.757 212.177 225.833 212.51 225.833C213.017 225.833 213.427 225.726 213.74 225.51C214.052 225.295 214.278 224.99 214.417 224.594C214.556 224.198 214.615 223.733 214.594 223.198V222.375C214.608 221.917 214.576 221.514 214.5 221.167C214.424 220.812 214.302 220.517 214.135 220.281C213.976 220.045 213.76 219.868 213.49 219.75C213.226 219.625 212.906 219.562 212.531 219.562C212.205 219.562 211.917 219.639 211.667 219.792C211.417 219.944 211.208 220.16 211.042 220.437C210.875 220.708 210.747 221.031 210.656 221.406C210.573 221.774 210.531 222.177 210.531 222.615ZM219.281 222.812V222.594C219.281 221.767 219.399 221.007 219.635 220.312C219.872 219.611 220.219 219.003 220.677 218.49C221.135 217.976 221.701 217.576 222.375 217.292C223.049 217 223.826 216.854 224.708 216.854C225.597 216.854 226.378 217 227.052 217.292C227.733 217.576 228.302 217.976 228.76 218.49C229.219 219.003 229.566 219.611 229.802 220.312C230.038 221.007 230.156 221.767 230.156 222.594V222.812C230.156 223.632 230.038 224.392 229.802 225.094C229.566 225.788 229.219 226.396 228.76 226.917C228.302 227.431 227.736 227.83 227.063 228.115C226.389 228.399 225.611 228.542 224.729 228.542C223.847 228.542 223.066 228.399 222.385 228.115C221.705 227.83 221.135 227.431 220.677 226.917C220.219 226.396 219.872 225.788 219.635 225.094C219.399 224.392 219.281 223.632 219.281 222.812ZM222.792 222.594V222.812C222.792 223.236 222.823 223.632 222.885 224C222.948 224.368 223.052 224.691 223.198 224.969C223.344 225.24 223.542 225.451 223.792 225.604C224.042 225.757 224.354 225.833 224.729 225.833C225.097 225.833 225.403 225.757 225.646 225.604C225.896 225.451 226.094 225.24 226.24 224.969C226.385 224.691 226.49 224.368 226.552 224C226.615 223.632 226.646 223.236 226.646 222.812V222.594C226.646 222.184 226.615 221.799 226.552 221.437C226.49 221.069 226.385 220.747 226.24 220.469C226.094 220.184 225.896 219.962 225.646 219.802C225.396 219.642 225.083 219.562 224.708 219.562C224.34 219.562 224.031 219.642 223.781 219.802C223.538 219.962 223.344 220.184 223.198 220.469C223.052 220.747 222.948 221.069 222.885 221.437C222.823 221.799 222.792 222.184 222.792 222.594ZM236.813 228.333H233.448L233.469 225.521H236.813C237.507 225.521 238.094 225.354 238.573 225.021C239.059 224.687 239.427 224.191 239.677 223.531C239.934 222.865 240.063 222.045 240.063 221.073V220.417C240.063 219.687 239.99 219.049 239.844 218.5C239.705 217.944 239.497 217.483 239.219 217.115C238.941 216.74 238.594 216.458 238.177 216.271C237.767 216.083 237.295 215.99 236.76 215.99H233.385V213.167H236.76C237.788 213.167 238.729 213.344 239.583 213.698C240.444 214.045 241.188 214.545 241.813 215.198C242.444 215.844 242.931 216.611 243.271 217.5C243.618 218.382 243.792 219.361 243.792 220.437V221.073C243.792 222.142 243.618 223.122 243.271 224.01C242.931 224.899 242.448 225.667 241.823 226.312C241.198 226.958 240.458 227.458 239.604 227.812C238.757 228.16 237.826 228.333 236.813 228.333ZM235.542 213.167V228.333H231.885V213.167H235.542ZM251.885 221.885H247.979L247.958 219.49H251.125C251.694 219.49 252.149 219.427 252.49 219.302C252.83 219.17 253.076 218.979 253.229 218.729C253.389 218.479 253.469 218.167 253.469 217.792C253.469 217.361 253.389 217.014 253.229 216.75C253.069 216.486 252.816 216.295 252.469 216.177C252.128 216.052 251.688 215.99 251.146 215.99H249.354V228.333H245.698V213.167H251.146C252.083 213.167 252.92 213.253 253.656 213.427C254.392 213.594 255.017 213.851 255.531 214.198C256.052 214.545 256.448 214.983 256.719 215.51C256.99 216.031 257.125 216.646 257.125 217.354C257.125 217.972 256.993 218.552 256.729 219.094C256.465 219.635 256.024 220.076 255.406 220.417C254.795 220.75 253.958 220.924 252.896 220.937L251.885 221.885ZM251.74 228.333H247.094L248.344 225.521H251.74C252.24 225.521 252.639 225.444 252.938 225.292C253.243 225.132 253.462 224.924 253.594 224.667C253.733 224.403 253.802 224.111 253.802 223.792C253.802 223.403 253.736 223.066 253.604 222.781C253.479 222.497 253.278 222.278 253 222.125C252.722 221.965 252.351 221.885 251.885 221.885H248.813L248.833 219.49H252.51L253.365 220.448C254.378 220.406 255.181 220.549 255.771 220.875C256.368 221.201 256.795 221.632 257.052 222.167C257.309 222.701 257.438 223.26 257.438 223.844C257.438 224.837 257.222 225.667 256.792 226.333C256.368 227 255.733 227.5 254.885 227.833C254.038 228.167 252.99 228.333 251.74 228.333Z" fill="white"/>
<rect x="339" y="196.333" width="208" height="49.3333" rx="4.66667" fill="#888888" stroke="#888888" stroke-width="4"/>
<path d="M416.427 225.521V228.333H408.344V225.521H416.427ZM409.646 213.167V228.333H405.99V213.167H409.646ZM415.385 219.187V221.906H408.344V219.187H415.385ZM416.458 213.167V215.99H408.344V213.167H416.458ZM420.74 217.062L422.323 220.167L423.958 217.062H427.604L424.646 222.552L427.76 228.333H424.083L422.323 225L420.573 228.333H416.896L420.01 222.552L417.062 217.062H420.74ZM432.302 219.229V232.667H428.792V217.062H432.062L432.302 219.229ZM439.219 222.562V222.781C439.219 223.601 439.125 224.361 438.937 225.062C438.75 225.764 438.472 226.375 438.104 226.896C437.736 227.417 437.278 227.823 436.729 228.115C436.187 228.399 435.559 228.542 434.844 228.542C434.17 228.542 433.59 228.392 433.104 228.094C432.618 227.795 432.212 227.382 431.885 226.854C431.559 226.326 431.295 225.722 431.094 225.042C430.892 224.361 430.733 223.642 430.615 222.885V222.604C430.733 221.792 430.892 221.038 431.094 220.344C431.295 219.642 431.559 219.031 431.885 218.51C432.212 217.99 432.615 217.583 433.094 217.292C433.58 217 434.16 216.854 434.833 216.854C435.549 216.854 436.177 216.99 436.719 217.26C437.267 217.531 437.726 217.92 438.094 218.427C438.469 218.927 438.75 219.528 438.937 220.229C439.125 220.931 439.219 221.708 439.219 222.562ZM435.708 222.781V222.562C435.708 222.125 435.677 221.726 435.615 221.365C435.552 220.997 435.451 220.677 435.312 220.406C435.181 220.135 435.003 219.927 434.781 219.781C434.559 219.635 434.285 219.562 433.958 219.562C433.583 219.562 433.267 219.622 433.01 219.74C432.76 219.851 432.559 220.024 432.406 220.26C432.26 220.49 432.156 220.778 432.094 221.125C432.038 221.465 432.014 221.865 432.021 222.323V223.177C432.007 223.705 432.059 224.17 432.177 224.573C432.295 224.969 432.5 225.278 432.792 225.5C433.083 225.722 433.479 225.833 433.979 225.833C434.312 225.833 434.59 225.757 434.812 225.604C435.035 225.444 435.212 225.226 435.344 224.948C435.476 224.663 435.569 224.337 435.625 223.969C435.681 223.601 435.708 223.205 435.708 222.781ZM444.323 219.854V228.333H440.812V217.062H444.094L444.323 219.854ZM447.656 216.979L447.594 220.24C447.455 220.226 447.267 220.208 447.031 220.187C446.795 220.167 446.597 220.156 446.437 220.156C446.028 220.156 445.674 220.205 445.375 220.302C445.083 220.392 444.84 220.531 444.646 220.719C444.458 220.899 444.319 221.128 444.229 221.406C444.146 221.684 444.108 222.007 444.115 222.375L443.479 221.958C443.479 221.201 443.552 220.514 443.698 219.896C443.851 219.271 444.066 218.733 444.344 218.281C444.622 217.823 444.958 217.472 445.354 217.229C445.75 216.979 446.194 216.854 446.687 216.854C446.861 216.854 447.031 216.865 447.198 216.885C447.372 216.906 447.524 216.937 447.656 216.979ZM454.115 228.542C453.198 228.542 452.378 228.399 451.656 228.115C450.934 227.823 450.323 227.424 449.823 226.917C449.33 226.41 448.951 225.826 448.687 225.167C448.431 224.507 448.302 223.809 448.302 223.073V222.677C448.302 221.851 448.417 221.087 448.646 220.385C448.875 219.677 449.215 219.059 449.667 218.531C450.118 218.003 450.684 217.594 451.365 217.302C452.045 217.003 452.837 216.854 453.74 216.854C454.538 216.854 455.253 216.983 455.885 217.24C456.517 217.497 457.052 217.865 457.49 218.344C457.934 218.823 458.271 219.403 458.5 220.083C458.736 220.764 458.854 221.528 458.854 222.375V223.802H449.646V221.604H455.427V221.333C455.434 220.958 455.368 220.639 455.229 220.375C455.097 220.111 454.903 219.91 454.646 219.771C454.389 219.632 454.076 219.562 453.708 219.562C453.326 219.562 453.01 219.646 452.76 219.812C452.517 219.979 452.326 220.208 452.187 220.5C452.056 220.785 451.962 221.115 451.906 221.49C451.851 221.865 451.823 222.26 451.823 222.677V223.073C451.823 223.49 451.878 223.868 451.99 224.208C452.108 224.549 452.274 224.84 452.49 225.083C452.712 225.319 452.976 225.503 453.281 225.635C453.594 225.767 453.948 225.833 454.344 225.833C454.823 225.833 455.295 225.743 455.76 225.562C456.226 225.382 456.625 225.083 456.958 224.667L458.552 226.562C458.323 226.889 457.997 227.205 457.573 227.51C457.156 227.816 456.656 228.066 456.073 228.26C455.49 228.448 454.837 228.542 454.115 228.542ZM466.187 225.167C466.187 224.972 466.122 224.806 465.99 224.667C465.865 224.521 465.642 224.389 465.323 224.271C465.003 224.146 464.556 224.021 463.979 223.896C463.431 223.778 462.913 223.622 462.427 223.427C461.948 223.233 461.528 222.997 461.167 222.719C460.806 222.441 460.521 222.111 460.312 221.729C460.111 221.347 460.01 220.91 460.01 220.417C460.01 219.937 460.111 219.486 460.312 219.062C460.521 218.632 460.823 218.253 461.219 217.927C461.622 217.594 462.111 217.333 462.687 217.146C463.264 216.951 463.92 216.854 464.656 216.854C465.67 216.854 466.545 217.01 467.281 217.323C468.017 217.628 468.583 218.059 468.979 218.615C469.382 219.163 469.583 219.799 469.583 220.521H466.073C466.073 220.236 466.024 219.993 465.927 219.792C465.837 219.59 465.687 219.437 465.479 219.333C465.271 219.222 464.993 219.167 464.646 219.167C464.403 219.167 464.181 219.212 463.979 219.302C463.785 219.392 463.628 219.517 463.51 219.677C463.392 219.837 463.333 220.024 463.333 220.24C463.333 220.392 463.368 220.531 463.437 220.656C463.514 220.774 463.628 220.885 463.781 220.99C463.934 221.087 464.128 221.177 464.365 221.26C464.601 221.337 464.885 221.406 465.219 221.469C465.976 221.608 466.684 221.806 467.344 222.062C468.003 222.319 468.538 222.684 468.948 223.156C469.365 223.628 469.573 224.264 469.573 225.062C469.573 225.562 469.458 226.024 469.229 226.448C469 226.865 468.67 227.233 468.24 227.552C467.809 227.865 467.292 228.108 466.687 228.281C466.083 228.455 465.403 228.542 464.646 228.542C463.569 228.542 462.66 228.351 461.917 227.969C461.174 227.58 460.611 227.094 460.229 226.51C459.854 225.92 459.667 225.323 459.667 224.719H462.937C462.951 225.066 463.035 225.351 463.187 225.573C463.347 225.795 463.559 225.958 463.823 226.062C464.087 226.167 464.392 226.219 464.74 226.219C465.059 226.219 465.323 226.174 465.531 226.083C465.747 225.993 465.91 225.872 466.021 225.719C466.132 225.559 466.187 225.375 466.187 225.167ZM477.125 225.167C477.125 224.972 477.059 224.806 476.927 224.667C476.802 224.521 476.58 224.389 476.26 224.271C475.941 224.146 475.493 224.021 474.917 223.896C474.368 223.778 473.851 223.622 473.365 223.427C472.885 223.233 472.465 222.997 472.104 222.719C471.743 222.441 471.458 222.111 471.25 221.729C471.049 221.347 470.948 220.91 470.948 220.417C470.948 219.937 471.049 219.486 471.25 219.062C471.458 218.632 471.76 218.253 472.156 217.927C472.559 217.594 473.049 217.333 473.625 217.146C474.201 216.951 474.858 216.854 475.594 216.854C476.608 216.854 477.483 217.01 478.219 217.323C478.955 217.628 479.521 218.059 479.917 218.615C480.319 219.163 480.521 219.799 480.521 220.521H477.01C477.01 220.236 476.962 219.993 476.865 219.792C476.774 219.59 476.625 219.437 476.417 219.333C476.208 219.222 475.931 219.167 475.583 219.167C475.34 219.167 475.118 219.212 474.917 219.302C474.722 219.392 474.566 219.517 474.448 219.677C474.33 219.837 474.271 220.024 474.271 220.24C474.271 220.392 474.306 220.531 474.375 220.656C474.451 220.774 474.566 220.885 474.719 220.99C474.872 221.087 475.066 221.177 475.302 221.26C475.538 221.337 475.823 221.406 476.156 221.469C476.913 221.608 477.622 221.806 478.281 222.062C478.941 222.319 479.476 222.684 479.885 223.156C480.302 223.628 480.51 224.264 480.51 225.062C480.51 225.562 480.396 226.024 480.167 226.448C479.937 226.865 479.608 227.233 479.177 227.552C478.747 227.865 478.229 228.108 477.625 228.281C477.021 228.455 476.34 228.542 475.583 228.542C474.507 228.542 473.597 228.351 472.854 227.969C472.111 227.58 471.549 227.094 471.167 226.51C470.792 225.92 470.604 225.323 470.604 224.719H473.875C473.889 225.066 473.972 225.351 474.125 225.573C474.285 225.795 474.497 225.958 474.76 226.062C475.024 226.167 475.33 226.219 475.677 226.219C475.997 226.219 476.26 226.174 476.469 226.083C476.684 225.993 476.847 225.872 476.958 225.719C477.069 225.559 477.125 225.375 477.125 225.167Z" fill="white"/>
<rect x="571" y="196.333" width="208" height="49.3333" rx="4.66667" fill="#888888" stroke="#888888" stroke-width="4"/>
<path d="M648.5 213.167H654.469C655.635 213.167 656.649 213.34 657.51 213.687C658.372 214.035 659.035 214.549 659.5 215.229C659.972 215.91 660.208 216.75 660.208 217.75C660.208 218.618 660.073 219.344 659.802 219.927C659.531 220.51 659.153 220.993 658.667 221.375C658.188 221.75 657.628 222.059 656.99 222.302L655.792 222.979H650.781L650.76 220.156H654.469C654.934 220.156 655.319 220.073 655.625 219.906C655.931 219.74 656.16 219.503 656.313 219.198C656.472 218.885 656.552 218.514 656.552 218.083C656.552 217.646 656.472 217.271 656.313 216.958C656.153 216.646 655.917 216.406 655.604 216.24C655.299 216.073 654.92 215.99 654.469 215.99H652.156V228.333H648.5V213.167ZM656.802 228.333L653.448 221.625L657.323 221.604L660.719 228.177V228.333H656.802ZM667.708 228.542C666.792 228.542 665.972 228.399 665.25 228.115C664.528 227.823 663.917 227.424 663.417 226.917C662.924 226.41 662.545 225.826 662.281 225.167C662.024 224.507 661.896 223.809 661.896 223.073V222.677C661.896 221.851 662.01 221.087 662.24 220.385C662.469 219.677 662.809 219.059 663.26 218.531C663.712 218.003 664.278 217.594 664.958 217.302C665.639 217.003 666.431 216.854 667.333 216.854C668.132 216.854 668.847 216.983 669.479 217.24C670.111 217.497 670.646 217.865 671.083 218.344C671.528 218.823 671.865 219.403 672.094 220.083C672.33 220.764 672.448 221.528 672.448 222.375V223.802H663.24V221.604H669.021V221.333C669.028 220.958 668.962 220.639 668.823 220.375C668.691 220.111 668.497 219.91 668.24 219.771C667.983 219.632 667.67 219.562 667.302 219.562C666.92 219.562 666.604 219.646 666.354 219.812C666.111 219.979 665.92 220.208 665.781 220.5C665.649 220.785 665.556 221.115 665.5 221.49C665.444 221.865 665.417 222.26 665.417 222.677V223.073C665.417 223.49 665.472 223.868 665.583 224.208C665.701 224.549 665.868 224.84 666.083 225.083C666.306 225.319 666.569 225.503 666.875 225.635C667.187 225.767 667.542 225.833 667.937 225.833C668.417 225.833 668.889 225.743 669.354 225.562C669.819 225.382 670.219 225.083 670.552 224.667L672.146 226.562C671.917 226.889 671.59 227.205 671.167 227.51C670.75 227.816 670.25 228.066 669.667 228.26C669.083 228.448 668.431 228.542 667.708 228.542ZM679.729 225.5V220.854C679.729 220.535 679.684 220.26 679.594 220.031C679.503 219.802 679.361 219.625 679.167 219.5C678.972 219.368 678.712 219.302 678.385 219.302C678.122 219.302 677.896 219.347 677.708 219.437C677.521 219.528 677.378 219.663 677.281 219.844C677.184 220.024 677.135 220.253 677.135 220.531H673.625C673.625 220.01 673.74 219.528 673.969 219.083C674.205 218.632 674.538 218.24 674.969 217.906C675.406 217.573 675.927 217.316 676.531 217.135C677.142 216.948 677.823 216.854 678.573 216.854C679.469 216.854 680.267 217.003 680.969 217.302C681.677 217.601 682.236 218.049 682.646 218.646C683.056 219.236 683.26 219.979 683.26 220.875V225.49C683.26 226.226 683.302 226.785 683.385 227.167C683.469 227.542 683.587 227.872 683.74 228.156V228.333H680.219C680.052 227.986 679.927 227.562 679.844 227.062C679.767 226.556 679.729 226.035 679.729 225.5ZM680.156 221.448L680.177 223.323H678.625C678.299 223.323 678.021 223.368 677.792 223.458C677.569 223.549 677.389 223.674 677.25 223.833C677.118 223.986 677.021 224.16 676.958 224.354C676.903 224.549 676.875 224.753 676.875 224.969C676.875 225.177 676.924 225.365 677.021 225.531C677.125 225.691 677.264 225.816 677.438 225.906C677.611 225.997 677.806 226.042 678.021 226.042C678.41 226.042 678.74 225.969 679.01 225.823C679.288 225.67 679.5 225.486 679.646 225.271C679.792 225.056 679.865 224.854 679.865 224.667L680.635 226.104C680.497 226.382 680.337 226.663 680.156 226.948C679.983 227.233 679.764 227.497 679.5 227.74C679.243 227.976 678.927 228.17 678.552 228.323C678.177 228.469 677.722 228.542 677.188 228.542C676.493 228.542 675.854 228.399 675.271 228.115C674.694 227.83 674.233 227.434 673.885 226.927C673.538 226.413 673.365 225.823 673.365 225.156C673.365 224.573 673.469 224.052 673.677 223.594C673.892 223.135 674.215 222.747 674.646 222.427C675.076 222.108 675.625 221.865 676.292 221.698C676.958 221.531 677.743 221.448 678.646 221.448H680.156ZM689.969 225.833C690.295 225.833 690.573 225.774 690.802 225.656C691.038 225.531 691.215 225.358 691.333 225.135C691.458 224.906 691.517 224.632 691.51 224.312H694.813C694.819 225.16 694.611 225.903 694.188 226.542C693.771 227.174 693.201 227.667 692.479 228.021C691.764 228.368 690.955 228.542 690.052 228.542C689.17 228.542 688.399 228.399 687.74 228.115C687.08 227.823 686.528 227.42 686.083 226.906C685.646 226.385 685.316 225.778 685.094 225.083C684.878 224.389 684.771 223.635 684.771 222.823V222.583C684.771 221.771 684.878 221.017 685.094 220.323C685.316 219.622 685.646 219.014 686.083 218.5C686.528 217.979 687.076 217.576 687.729 217.292C688.389 217 689.156 216.854 690.031 216.854C690.969 216.854 691.795 217.031 692.51 217.385C693.233 217.74 693.799 218.253 694.208 218.927C694.618 219.601 694.819 220.417 694.813 221.375H691.51C691.517 221.035 691.465 220.729 691.354 220.458C691.243 220.187 691.069 219.972 690.833 219.812C690.604 219.646 690.309 219.562 689.948 219.562C689.587 219.562 689.295 219.642 689.073 219.802C688.851 219.962 688.681 220.184 688.563 220.469C688.451 220.747 688.375 221.066 688.333 221.427C688.299 221.788 688.281 222.174 688.281 222.583V222.823C688.281 223.24 688.299 223.632 688.333 224C688.375 224.361 688.455 224.681 688.573 224.958C688.691 225.229 688.861 225.444 689.083 225.604C689.306 225.757 689.601 225.833 689.969 225.833ZM702.25 217.062V219.5H695.458V217.062H702.25ZM696.885 214.26H700.396V224.656C700.396 224.955 700.431 225.187 700.5 225.354C700.569 225.514 700.688 225.628 700.854 225.698C701.028 225.76 701.257 225.792 701.542 225.792C701.743 225.792 701.91 225.788 702.042 225.781C702.174 225.767 702.299 225.75 702.417 225.729V228.24C702.118 228.337 701.806 228.41 701.479 228.458C701.153 228.514 700.806 228.542 700.438 228.542C699.688 228.542 699.045 228.424 698.51 228.187C697.983 227.951 697.58 227.58 697.302 227.073C697.024 226.566 696.885 225.906 696.885 225.094V214.26Z" fill="white"/>
<rect x="803" y="196.333" width="208" height="49.3333" rx="4.66667" fill="#888888" stroke="#888888" stroke-width="4"/>
<path d="M882.844 213.167V228.333H879.198L873.833 218.896V228.333H870.177V213.167H873.833L879.198 222.604V213.167H882.844ZM884.552 222.812V222.594C884.552 221.767 884.67 221.007 884.906 220.312C885.142 219.611 885.49 219.003 885.948 218.49C886.406 217.976 886.972 217.576 887.646 217.292C888.319 217 889.097 216.854 889.979 216.854C890.868 216.854 891.649 217 892.323 217.292C893.003 217.576 893.573 217.976 894.031 218.49C894.49 219.003 894.837 219.611 895.073 220.312C895.309 221.007 895.427 221.767 895.427 222.594V222.812C895.427 223.632 895.309 224.392 895.073 225.094C894.837 225.788 894.49 226.396 894.031 226.917C893.573 227.431 893.007 227.83 892.333 228.115C891.66 228.399 890.882 228.542 890 228.542C889.118 228.542 888.337 228.399 887.656 228.115C886.976 227.83 886.406 227.431 885.948 226.917C885.49 226.396 885.142 225.788 884.906 225.094C884.67 224.392 884.552 223.632 884.552 222.812ZM888.062 222.594V222.812C888.062 223.236 888.094 223.632 888.156 224C888.219 224.368 888.323 224.691 888.469 224.969C888.615 225.24 888.812 225.451 889.062 225.604C889.312 225.757 889.625 225.833 890 225.833C890.368 225.833 890.674 225.757 890.917 225.604C891.167 225.451 891.365 225.24 891.51 224.969C891.656 224.691 891.76 224.368 891.823 224C891.885 223.632 891.917 223.236 891.917 222.812V222.594C891.917 222.184 891.885 221.799 891.823 221.437C891.76 221.069 891.656 220.747 891.51 220.469C891.365 220.184 891.167 219.962 890.917 219.802C890.667 219.642 890.354 219.562 889.979 219.562C889.611 219.562 889.302 219.642 889.052 219.802C888.809 219.962 888.615 220.184 888.469 220.469C888.323 220.747 888.219 221.069 888.156 221.437C888.094 221.799 888.062 222.184 888.062 222.594ZM903.469 225.75V212.333H907V228.333H903.833L903.469 225.75ZM896.552 222.833V222.615C896.552 221.76 896.646 220.983 896.833 220.281C897.021 219.573 897.299 218.965 897.667 218.458C898.035 217.944 898.493 217.549 899.042 217.271C899.59 216.993 900.222 216.854 900.938 216.854C901.576 216.854 902.135 217.003 902.615 217.302C903.094 217.594 903.503 218.003 903.844 218.531C904.184 219.059 904.462 219.677 904.677 220.385C904.892 221.087 905.056 221.844 905.167 222.656V222.917C905.056 223.681 904.892 224.403 904.677 225.083C904.462 225.757 904.184 226.354 903.844 226.875C903.503 227.396 903.09 227.806 902.604 228.104C902.125 228.396 901.563 228.542 900.917 228.542C900.201 228.542 899.569 228.399 899.021 228.115C898.479 227.83 898.024 227.431 897.656 226.917C897.295 226.403 897.021 225.799 896.833 225.104C896.646 224.41 896.552 223.653 896.552 222.833ZM900.063 222.615V222.833C900.063 223.257 900.09 223.649 900.146 224.01C900.201 224.372 900.295 224.691 900.427 224.969C900.566 225.24 900.747 225.451 900.969 225.604C901.198 225.757 901.479 225.833 901.813 225.833C902.264 225.833 902.635 225.726 902.927 225.51C903.226 225.295 903.444 224.99 903.583 224.594C903.729 224.198 903.792 223.733 903.771 223.198V222.375C903.785 221.917 903.753 221.514 903.677 221.167C903.601 220.812 903.479 220.517 903.313 220.281C903.153 220.045 902.948 219.868 902.698 219.75C902.455 219.625 902.167 219.562 901.833 219.562C901.507 219.562 901.229 219.639 901 219.792C900.778 219.944 900.597 220.16 900.458 220.437C900.319 220.708 900.219 221.031 900.156 221.406C900.094 221.774 900.063 222.177 900.063 222.615ZM914.448 228.542C913.531 228.542 912.712 228.399 911.99 228.115C911.267 227.823 910.656 227.424 910.156 226.917C909.663 226.41 909.285 225.826 909.021 225.167C908.764 224.507 908.635 223.809 908.635 223.073V222.677C908.635 221.851 908.75 221.087 908.979 220.385C909.208 219.677 909.549 219.059 910 218.531C910.451 218.003 911.017 217.594 911.698 217.302C912.378 217.003 913.17 216.854 914.073 216.854C914.872 216.854 915.587 216.983 916.219 217.24C916.851 217.497 917.385 217.865 917.823 218.344C918.267 218.823 918.604 219.403 918.833 220.083C919.069 220.764 919.188 221.528 919.188 222.375V223.802H909.979V221.604H915.76V221.333C915.767 220.958 915.701 220.639 915.563 220.375C915.431 220.111 915.236 219.91 914.979 219.771C914.722 219.632 914.41 219.562 914.042 219.562C913.66 219.562 913.344 219.646 913.094 219.812C912.851 219.979 912.66 220.208 912.521 220.5C912.389 220.785 912.295 221.115 912.24 221.49C912.184 221.865 912.156 222.26 912.156 222.677V223.073C912.156 223.49 912.212 223.868 912.323 224.208C912.441 224.549 912.608 224.84 912.823 225.083C913.045 225.319 913.309 225.503 913.615 225.635C913.927 225.767 914.281 225.833 914.677 225.833C915.156 225.833 915.628 225.743 916.094 225.562C916.559 225.382 916.958 225.083 917.292 224.667L918.885 226.562C918.656 226.889 918.33 227.205 917.906 227.51C917.49 227.816 916.99 228.066 916.406 228.26C915.823 228.448 915.17 228.542 914.448 228.542ZM926.813 223.573V213.167H930.458V223.573C930.458 224.587 930.226 225.465 929.76 226.208C929.302 226.951 928.677 227.528 927.885 227.937C927.101 228.34 926.219 228.542 925.24 228.542C924.226 228.542 923.323 228.372 922.531 228.031C921.747 227.691 921.128 227.167 920.677 226.458C920.233 225.75 920.01 224.847 920.01 223.75H923.677C923.677 224.264 923.736 224.667 923.854 224.958C923.972 225.243 924.146 225.444 924.375 225.562C924.611 225.674 924.899 225.729 925.24 225.729C925.573 225.729 925.854 225.646 926.083 225.479C926.319 225.306 926.5 225.059 926.625 224.74C926.75 224.413 926.813 224.024 926.813 223.573ZM940.594 224.302C940.594 224.066 940.559 223.854 940.49 223.667C940.42 223.472 940.292 223.292 940.104 223.125C939.917 222.958 939.646 222.792 939.292 222.625C938.944 222.451 938.486 222.271 937.917 222.083C937.25 221.861 936.608 221.611 935.99 221.333C935.372 221.049 934.819 220.719 934.333 220.344C933.847 219.962 933.462 219.517 933.177 219.01C932.892 218.497 932.75 217.899 932.75 217.219C932.75 216.566 932.896 215.979 933.188 215.458C933.479 214.931 933.885 214.483 934.406 214.115C934.934 213.74 935.552 213.455 936.26 213.26C936.969 213.059 937.743 212.958 938.583 212.958C939.694 212.958 940.674 213.153 941.521 213.542C942.375 213.924 943.042 214.469 943.521 215.177C944.007 215.878 944.25 216.708 944.25 217.667H940.615C940.615 217.285 940.535 216.948 940.375 216.656C940.222 216.365 939.99 216.135 939.677 215.969C939.365 215.802 938.972 215.719 938.5 215.719C938.042 215.719 937.656 215.788 937.344 215.927C937.031 216.066 936.795 216.253 936.635 216.49C936.476 216.719 936.396 216.972 936.396 217.25C936.396 217.479 936.458 217.687 936.583 217.875C936.715 218.056 936.899 218.226 937.135 218.385C937.378 218.545 937.67 218.698 938.01 218.844C938.358 218.99 938.747 219.132 939.177 219.271C939.983 219.528 940.698 219.816 941.323 220.135C941.955 220.448 942.486 220.806 942.917 221.208C943.354 221.604 943.684 222.056 943.906 222.562C944.135 223.069 944.25 223.642 944.25 224.281C944.25 224.962 944.118 225.566 943.854 226.094C943.59 226.622 943.212 227.069 942.719 227.437C942.226 227.799 941.635 228.073 940.948 228.26C940.26 228.448 939.493 228.542 938.646 228.542C937.868 228.542 937.101 228.444 936.344 228.25C935.594 228.049 934.913 227.743 934.302 227.333C933.691 226.917 933.201 226.385 932.833 225.74C932.472 225.087 932.292 224.312 932.292 223.417H935.958C935.958 223.861 936.017 224.236 936.135 224.542C936.253 224.847 936.427 225.094 936.656 225.281C936.885 225.462 937.167 225.594 937.5 225.677C937.833 225.753 938.215 225.792 938.646 225.792C939.111 225.792 939.486 225.726 939.771 225.594C940.056 225.455 940.264 225.274 940.396 225.052C940.528 224.823 940.594 224.573 940.594 224.302Z" fill="white"/>
<rect x="1035" y="196.333" width="208" height="49.3333" rx="4.66667" fill="#888888" stroke="#888888" stroke-width="4"/>
<path d="M1078.83 213.167H1084.8C1085.97 213.167 1086.98 213.34 1087.84 213.687C1088.7 214.035 1089.37 214.549 1089.83 215.229C1090.31 215.91 1090.54 216.75 1090.54 217.75C1090.54 218.618 1090.41 219.344 1090.14 219.927C1089.86 220.51 1089.49 220.993 1089 221.375C1088.52 221.75 1087.96 222.059 1087.32 222.302L1086.12 222.979H1081.11L1081.09 220.156H1084.8C1085.27 220.156 1085.65 220.073 1085.96 219.906C1086.26 219.74 1086.49 219.503 1086.65 219.198C1086.81 218.885 1086.89 218.514 1086.89 218.083C1086.89 217.646 1086.81 217.271 1086.65 216.958C1086.49 216.646 1086.25 216.406 1085.94 216.24C1085.63 216.073 1085.25 215.99 1084.8 215.99H1082.49V228.333H1078.83V213.167ZM1087.14 228.333L1083.78 221.625L1087.66 221.604L1091.05 228.177V228.333H1087.14ZM1098.04 228.542C1097.13 228.542 1096.31 228.399 1095.58 228.115C1094.86 227.823 1094.25 227.424 1093.75 226.917C1093.26 226.41 1092.88 225.826 1092.61 225.167C1092.36 224.507 1092.23 223.809 1092.23 223.073V222.677C1092.23 221.851 1092.34 221.087 1092.57 220.385C1092.8 219.677 1093.14 219.059 1093.59 218.531C1094.05 218.003 1094.61 217.594 1095.29 217.302C1095.97 217.003 1096.76 216.854 1097.67 216.854C1098.47 216.854 1099.18 216.983 1099.81 217.24C1100.44 217.497 1100.98 217.865 1101.42 218.344C1101.86 218.823 1102.2 219.403 1102.43 220.083C1102.66 220.764 1102.78 221.528 1102.78 222.375V223.802H1093.57V221.604H1099.35V221.333C1099.36 220.958 1099.3 220.639 1099.16 220.375C1099.02 220.111 1098.83 219.91 1098.57 219.771C1098.32 219.632 1098 219.562 1097.64 219.562C1097.25 219.562 1096.94 219.646 1096.69 219.812C1096.44 219.979 1096.25 220.208 1096.11 220.5C1095.98 220.785 1095.89 221.115 1095.83 221.49C1095.78 221.865 1095.75 222.26 1095.75 222.677V223.073C1095.75 223.49 1095.81 223.868 1095.92 224.208C1096.03 224.549 1096.2 224.84 1096.42 225.083C1096.64 225.319 1096.9 225.503 1097.21 225.635C1097.52 225.767 1097.88 225.833 1098.27 225.833C1098.75 225.833 1099.22 225.743 1099.69 225.562C1100.15 225.382 1100.55 225.083 1100.89 224.667L1102.48 226.562C1102.25 226.889 1101.92 227.205 1101.5 227.51C1101.08 227.816 1100.58 228.066 1100 228.26C1099.42 228.448 1098.76 228.542 1098.04 228.542ZM1110.06 225.5V220.854C1110.06 220.535 1110.02 220.26 1109.93 220.031C1109.84 219.802 1109.69 219.625 1109.5 219.5C1109.31 219.368 1109.05 219.302 1108.72 219.302C1108.45 219.302 1108.23 219.347 1108.04 219.437C1107.85 219.528 1107.71 219.663 1107.61 219.844C1107.52 220.024 1107.47 220.253 1107.47 220.531H1103.96C1103.96 220.01 1104.07 219.528 1104.3 219.083C1104.54 218.632 1104.87 218.24 1105.3 217.906C1105.74 217.573 1106.26 217.316 1106.86 217.135C1107.48 216.948 1108.16 216.854 1108.91 216.854C1109.8 216.854 1110.6 217.003 1111.3 217.302C1112.01 217.601 1112.57 218.049 1112.98 218.646C1113.39 219.236 1113.59 219.979 1113.59 220.875V225.49C1113.59 226.226 1113.64 226.785 1113.72 227.167C1113.8 227.542 1113.92 227.872 1114.07 228.156V228.333H1110.55C1110.39 227.986 1110.26 227.562 1110.18 227.062C1110.1 226.556 1110.06 226.035 1110.06 225.5ZM1110.49 221.448L1110.51 223.323H1108.96C1108.63 223.323 1108.35 223.368 1108.13 223.458C1107.9 223.549 1107.72 223.674 1107.58 223.833C1107.45 223.986 1107.35 224.16 1107.29 224.354C1107.24 224.549 1107.21 224.753 1107.21 224.969C1107.21 225.177 1107.26 225.365 1107.35 225.531C1107.46 225.691 1107.6 225.816 1107.77 225.906C1107.94 225.997 1108.14 226.042 1108.35 226.042C1108.74 226.042 1109.07 225.969 1109.34 225.823C1109.62 225.67 1109.83 225.486 1109.98 225.271C1110.13 225.056 1110.2 224.854 1110.2 224.667L1110.97 226.104C1110.83 226.382 1110.67 226.663 1110.49 226.948C1110.32 227.233 1110.1 227.497 1109.83 227.74C1109.58 227.976 1109.26 228.17 1108.89 228.323C1108.51 228.469 1108.06 228.542 1107.52 228.542C1106.83 228.542 1106.19 228.399 1105.6 228.115C1105.03 227.83 1104.57 227.434 1104.22 226.927C1103.87 226.413 1103.7 225.823 1103.7 225.156C1103.7 224.573 1103.8 224.052 1104.01 223.594C1104.23 223.135 1104.55 222.747 1104.98 222.427C1105.41 222.108 1105.96 221.865 1106.63 221.698C1107.29 221.531 1108.08 221.448 1108.98 221.448H1110.49ZM1120.3 225.833C1120.63 225.833 1120.91 225.774 1121.14 225.656C1121.37 225.531 1121.55 225.358 1121.67 225.135C1121.79 224.906 1121.85 224.632 1121.84 224.312H1125.15C1125.15 225.16 1124.94 225.903 1124.52 226.542C1124.1 227.174 1123.53 227.667 1122.81 228.021C1122.1 228.368 1121.29 228.542 1120.39 228.542C1119.5 228.542 1118.73 228.399 1118.07 228.115C1117.41 227.823 1116.86 227.42 1116.42 226.906C1115.98 226.385 1115.65 225.778 1115.43 225.083C1115.21 224.389 1115.1 223.635 1115.1 222.823V222.583C1115.1 221.771 1115.21 221.017 1115.43 220.323C1115.65 219.622 1115.98 219.014 1116.42 218.5C1116.86 217.979 1117.41 217.576 1118.06 217.292C1118.72 217 1119.49 216.854 1120.36 216.854C1121.3 216.854 1122.13 217.031 1122.84 217.385C1123.57 217.74 1124.13 218.253 1124.54 218.927C1124.95 219.601 1125.15 220.417 1125.15 221.375H1121.84C1121.85 221.035 1121.8 220.729 1121.69 220.458C1121.58 220.187 1121.4 219.972 1121.17 219.812C1120.94 219.646 1120.64 219.562 1120.28 219.562C1119.92 219.562 1119.63 219.642 1119.41 219.802C1119.18 219.962 1119.01 220.184 1118.9 220.469C1118.78 220.747 1118.71 221.066 1118.67 221.427C1118.63 221.788 1118.61 222.174 1118.61 222.583V222.823C1118.61 223.24 1118.63 223.632 1118.67 224C1118.71 224.361 1118.79 224.681 1118.91 224.958C1119.02 225.229 1119.19 225.444 1119.42 225.604C1119.64 225.757 1119.93 225.833 1120.3 225.833ZM1132.58 217.062V219.5H1125.79V217.062H1132.58ZM1127.22 214.26H1130.73V224.656C1130.73 224.955 1130.76 225.187 1130.83 225.354C1130.9 225.514 1131.02 225.628 1131.19 225.698C1131.36 225.76 1131.59 225.792 1131.88 225.792C1132.08 225.792 1132.24 225.788 1132.38 225.781C1132.51 225.767 1132.63 225.75 1132.75 225.729V228.24C1132.45 228.337 1132.14 228.41 1131.81 228.458C1131.49 228.514 1131.14 228.542 1130.77 228.542C1130.02 228.542 1129.38 228.424 1128.84 228.187C1128.32 227.951 1127.91 227.58 1127.64 227.073C1127.36 226.566 1127.22 225.906 1127.22 225.094V214.26ZM1152.12 213.167V228.333H1148.48L1143.11 218.896V228.333H1139.46V213.167H1143.11L1148.48 222.604V213.167H1152.12ZM1160.13 225.5V220.854C1160.13 220.535 1160.08 220.26 1159.99 220.031C1159.9 219.802 1159.76 219.625 1159.56 219.5C1159.37 219.368 1159.11 219.302 1158.78 219.302C1158.52 219.302 1158.29 219.347 1158.1 219.437C1157.92 219.528 1157.77 219.663 1157.68 219.844C1157.58 220.024 1157.53 220.253 1157.53 220.531H1154.02C1154.02 220.01 1154.14 219.528 1154.36 219.083C1154.6 218.632 1154.93 218.24 1155.36 217.906C1155.8 217.573 1156.32 217.316 1156.93 217.135C1157.54 216.948 1158.22 216.854 1158.97 216.854C1159.86 216.854 1160.66 217.003 1161.36 217.302C1162.07 217.601 1162.63 218.049 1163.04 218.646C1163.45 219.236 1163.66 219.979 1163.66 220.875V225.49C1163.66 226.226 1163.7 226.785 1163.78 227.167C1163.86 227.542 1163.98 227.872 1164.14 228.156V228.333H1160.61C1160.45 227.986 1160.32 227.562 1160.24 227.062C1160.16 226.556 1160.13 226.035 1160.13 225.5ZM1160.55 221.448L1160.57 223.323H1159.02C1158.69 223.323 1158.42 223.368 1158.19 223.458C1157.97 223.549 1157.78 223.674 1157.65 223.833C1157.51 223.986 1157.42 224.16 1157.35 224.354C1157.3 224.549 1157.27 224.753 1157.27 224.969C1157.27 225.177 1157.32 225.365 1157.42 225.531C1157.52 225.691 1157.66 225.816 1157.83 225.906C1158.01 225.997 1158.2 226.042 1158.42 226.042C1158.81 226.042 1159.14 225.969 1159.41 225.823C1159.68 225.67 1159.9 225.486 1160.04 225.271C1160.19 225.056 1160.26 224.854 1160.26 224.667L1161.03 226.104C1160.89 226.382 1160.73 226.663 1160.55 226.948C1160.38 227.233 1160.16 227.497 1159.9 227.74C1159.64 227.976 1159.32 228.17 1158.95 228.323C1158.57 228.469 1158.12 228.542 1157.58 228.542C1156.89 228.542 1156.25 228.399 1155.67 228.115C1155.09 227.83 1154.63 227.434 1154.28 226.927C1153.93 226.413 1153.76 225.823 1153.76 225.156C1153.76 224.573 1153.86 224.052 1154.07 223.594C1154.29 223.135 1154.61 222.747 1155.04 222.427C1155.47 222.108 1156.02 221.865 1156.69 221.698C1157.35 221.531 1158.14 221.448 1159.04 221.448H1160.55ZM1171.54 217.062V219.5H1164.75V217.062H1171.54ZM1166.18 214.26H1169.69V224.656C1169.69 224.955 1169.72 225.187 1169.79 225.354C1169.86 225.514 1169.98 225.628 1170.15 225.698C1170.32 225.76 1170.55 225.792 1170.83 225.792C1171.03 225.792 1171.2 225.788 1171.33 225.781C1171.47 225.767 1171.59 225.75 1171.71 225.729V228.24C1171.41 228.337 1171.1 228.41 1170.77 228.458C1170.44 228.514 1170.1 228.542 1169.73 228.542C1168.98 228.542 1168.34 228.424 1167.8 228.187C1167.27 227.951 1166.87 227.58 1166.59 227.073C1166.32 226.566 1166.18 225.906 1166.18 225.094V214.26ZM1176.65 217.062V228.333H1173.13V217.062H1176.65ZM1172.92 214.156C1172.92 213.656 1173.1 213.247 1173.46 212.927C1173.82 212.608 1174.29 212.448 1174.86 212.448C1175.44 212.448 1175.91 212.608 1176.27 212.927C1176.63 213.247 1176.81 213.656 1176.81 214.156C1176.81 214.656 1176.63 215.066 1176.27 215.385C1175.91 215.705 1175.44 215.865 1174.86 215.865C1174.29 215.865 1173.82 215.705 1173.46 215.385C1173.1 215.066 1172.92 214.656 1172.92 214.156ZM1182.88 225.927L1185.09 217.062H1188.79L1185.1 228.333H1182.92L1182.88 225.927ZM1181.56 217.062L1183.75 225.927L1183.73 228.333H1181.53L1177.85 217.062H1181.56ZM1195.15 228.542C1194.23 228.542 1193.41 228.399 1192.69 228.115C1191.97 227.823 1191.35 227.424 1190.85 226.917C1190.36 226.41 1189.98 225.826 1189.72 225.167C1189.46 224.507 1189.33 223.809 1189.33 223.073V222.677C1189.33 221.851 1189.45 221.087 1189.68 220.385C1189.91 219.677 1190.25 219.059 1190.7 218.531C1191.15 218.003 1191.72 217.594 1192.4 217.302C1193.08 217.003 1193.87 216.854 1194.77 216.854C1195.57 216.854 1196.28 216.983 1196.92 217.24C1197.55 217.497 1198.08 217.865 1198.52 218.344C1198.97 218.823 1199.3 219.403 1199.53 220.083C1199.77 220.764 1199.89 221.528 1199.89 222.375V223.802H1190.68V221.604H1196.46V221.333C1196.47 220.958 1196.4 220.639 1196.26 220.375C1196.13 220.111 1195.93 219.91 1195.68 219.771C1195.42 219.632 1195.11 219.562 1194.74 219.562C1194.36 219.562 1194.04 219.646 1193.79 219.812C1193.55 219.979 1193.36 220.208 1193.22 220.5C1193.09 220.785 1192.99 221.115 1192.94 221.49C1192.88 221.865 1192.85 222.26 1192.85 222.677V223.073C1192.85 223.49 1192.91 223.868 1193.02 224.208C1193.14 224.549 1193.31 224.84 1193.52 225.083C1193.74 225.319 1194.01 225.503 1194.31 225.635C1194.63 225.767 1194.98 225.833 1195.38 225.833C1195.85 225.833 1196.33 225.743 1196.79 225.562C1197.26 225.382 1197.66 225.083 1197.99 224.667L1199.58 226.562C1199.35 226.889 1199.03 227.205 1198.6 227.51C1198.19 227.816 1197.69 228.066 1197.1 228.26C1196.52 228.448 1195.87 228.542 1195.15 228.542Z" fill="white"/>
</svg>
