<svg width="1363" height="167" viewBox="0 0 1363 167" fill="none" xmlns="http://www.w3.org/2000/svg">
<rect width="1363" height="167" rx="15" fill="#F0F0F0"/>
<path d="M0 15C0 6.71573 6.71573 0 15 0H37V167H15C6.71573 167 0 160.284 0 152V15Z" fill="#424241"/>
<path d="M100.906 50.9219L93.3945 48.2383V45.0859L103.602 49.375V51.6367L100.906 50.9219ZM93.3945 53.1719L100.918 50.4297L103.602 49.7852V52.0352L93.3945 56.3242V53.1719ZM115.414 40.9375V58H111.898V40.9375H115.414ZM122.211 48.2266V50.9688H114.453V48.2266H122.211ZM123.031 40.9375V43.6914H114.453V40.9375H123.031ZM127.93 48.0859V58H124.555V45.3203H127.73L127.93 48.0859ZM131.75 45.2383L131.691 48.3672C131.527 48.3438 131.328 48.3242 131.094 48.3086C130.867 48.2852 130.66 48.2734 130.473 48.2734C129.996 48.2734 129.582 48.3359 129.23 48.4609C128.887 48.5781 128.598 48.7539 128.363 48.9883C128.137 49.2227 127.965 49.5078 127.848 49.8438C127.738 50.1797 127.676 50.5625 127.66 50.9922L126.98 50.7812C126.98 49.9609 127.062 49.207 127.227 48.5195C127.391 47.8242 127.629 47.2188 127.941 46.7031C128.262 46.1875 128.652 45.7891 129.113 45.5078C129.574 45.2266 130.102 45.0859 130.695 45.0859C130.883 45.0859 131.074 45.1016 131.27 45.1328C131.465 45.1562 131.625 45.1914 131.75 45.2383ZM140.844 54.9648V45.3203H144.219V58H141.043L140.844 54.9648ZM141.219 52.3633L142.215 52.3398C142.215 53.1836 142.117 53.9688 141.922 54.6953C141.727 55.4141 141.434 56.0391 141.043 56.5703C140.652 57.0938 140.16 57.5039 139.566 57.8008C138.973 58.0898 138.273 58.2344 137.469 58.2344C136.852 58.2344 136.281 58.1484 135.758 57.9766C135.242 57.7969 134.797 57.5195 134.422 57.1445C134.055 56.7617 133.766 56.2734 133.555 55.6797C133.352 55.0781 133.25 54.3555 133.25 53.5117V45.3203H136.625V53.5352C136.625 53.9102 136.668 54.2266 136.754 54.4844C136.848 54.7422 136.977 54.9531 137.141 55.1172C137.305 55.2812 137.496 55.3984 137.715 55.4688C137.941 55.5391 138.191 55.5742 138.465 55.5742C139.16 55.5742 139.707 55.4336 140.105 55.1523C140.512 54.8711 140.797 54.4883 140.961 54.0039C141.133 53.5117 141.219 52.9648 141.219 52.3633ZM150.359 45.3203V58H146.973V45.3203H150.359ZM146.762 42.0156C146.762 41.5234 146.934 41.1172 147.277 40.7969C147.621 40.4766 148.082 40.3164 148.66 40.3164C149.23 40.3164 149.688 40.4766 150.031 40.7969C150.383 41.1172 150.559 41.5234 150.559 42.0156C150.559 42.5078 150.383 42.9141 150.031 43.2344C149.688 43.5547 149.23 43.7148 148.66 43.7148C148.082 43.7148 147.621 43.5547 147.277 43.2344C146.934 42.9141 146.762 42.5078 146.762 42.0156ZM159.359 45.3203V47.7109H151.977V45.3203H159.359ZM153.805 42.1914H157.18V54.1797C157.18 54.5469 157.227 54.8281 157.32 55.0234C157.422 55.2188 157.57 55.3555 157.766 55.4336C157.961 55.5039 158.207 55.5391 158.504 55.5391C158.715 55.5391 158.902 55.5312 159.066 55.5156C159.238 55.4922 159.383 55.4688 159.5 55.4453L159.512 57.9297C159.223 58.0234 158.91 58.0977 158.574 58.1523C158.238 58.207 157.867 58.2344 157.461 58.2344C156.719 58.2344 156.07 58.1133 155.516 57.8711C154.969 57.6211 154.547 57.2227 154.25 56.6758C153.953 56.1289 153.805 55.4102 153.805 54.5195V42.1914ZM168.125 55.1406V49.4922C168.125 49.0859 168.059 48.7383 167.926 48.4492C167.793 48.1523 167.586 47.9219 167.305 47.7578C167.031 47.5938 166.676 47.5117 166.238 47.5117C165.863 47.5117 165.539 47.5781 165.266 47.7109C164.992 47.8359 164.781 48.0195 164.633 48.2617C164.484 48.4961 164.41 48.7734 164.41 49.0938H161.035C161.035 48.5547 161.16 48.043 161.41 47.5586C161.66 47.0742 162.023 46.6484 162.5 46.2812C162.977 45.9062 163.543 45.6133 164.199 45.4023C164.863 45.1914 165.605 45.0859 166.426 45.0859C167.41 45.0859 168.285 45.25 169.051 45.5781C169.816 45.9062 170.418 46.3984 170.855 47.0547C171.301 47.7109 171.523 48.5312 171.523 49.5156V54.9414C171.523 55.6367 171.566 56.207 171.652 56.6523C171.738 57.0898 171.863 57.4727 172.027 57.8008V58H168.617C168.453 57.6562 168.328 57.2266 168.242 56.7109C168.164 56.1875 168.125 55.6641 168.125 55.1406ZM168.57 50.2773L168.594 52.1875H166.707C166.262 52.1875 165.875 52.2383 165.547 52.3398C165.219 52.4414 164.949 52.5859 164.738 52.7734C164.527 52.9531 164.371 53.1641 164.27 53.4062C164.176 53.6484 164.129 53.9141 164.129 54.2031C164.129 54.4922 164.195 54.7539 164.328 54.9883C164.461 55.2148 164.652 55.3945 164.902 55.5273C165.152 55.6523 165.445 55.7148 165.781 55.7148C166.289 55.7148 166.73 55.6133 167.105 55.4102C167.48 55.207 167.77 54.957 167.973 54.6602C168.184 54.3633 168.293 54.082 168.301 53.8164L169.191 55.2461C169.066 55.5664 168.895 55.8984 168.676 56.2422C168.465 56.5859 168.195 56.9102 167.867 57.2148C167.539 57.5117 167.145 57.7578 166.684 57.9531C166.223 58.1406 165.676 58.2344 165.043 58.2344C164.238 58.2344 163.508 58.0742 162.852 57.7539C162.203 57.4258 161.688 56.9766 161.305 56.4062C160.93 55.8281 160.742 55.1719 160.742 54.4375C160.742 53.7734 160.867 53.1836 161.117 52.668C161.367 52.1523 161.734 51.7188 162.219 51.3672C162.711 51.0078 163.324 50.7383 164.059 50.5586C164.793 50.3711 165.645 50.2773 166.613 50.2773H168.57ZM174.125 40H177.5V55.0938L177.16 58H174.125V40ZM185.527 51.5312V51.7773C185.527 52.7227 185.426 53.5898 185.223 54.3789C185.027 55.168 184.723 55.8516 184.309 56.4297C183.895 57 183.379 57.4453 182.762 57.7656C182.152 58.0781 181.434 58.2344 180.605 58.2344C179.832 58.2344 179.16 58.0781 178.59 57.7656C178.027 57.4531 177.555 57.0117 177.172 56.4414C176.789 55.8711 176.48 55.2031 176.246 54.4375C176.012 53.6719 175.836 52.8359 175.719 51.9297V51.3906C175.836 50.4844 176.012 49.6484 176.246 48.8828C176.48 48.1172 176.789 47.4492 177.172 46.8789C177.555 46.3086 178.027 45.8672 178.59 45.5547C179.152 45.2422 179.816 45.0859 180.582 45.0859C181.418 45.0859 182.145 45.2461 182.762 45.5664C183.387 45.8789 183.902 46.3242 184.309 46.9023C184.723 47.4727 185.027 48.1523 185.223 48.9414C185.426 49.7227 185.527 50.5859 185.527 51.5312ZM182.152 51.7773V51.5312C182.152 51.0156 182.113 50.5312 182.035 50.0781C181.965 49.6172 181.84 49.2148 181.66 48.8711C181.48 48.5195 181.234 48.2422 180.922 48.0391C180.617 47.8359 180.223 47.7344 179.738 47.7344C179.277 47.7344 178.887 47.8125 178.566 47.9688C178.246 48.125 177.98 48.3438 177.77 48.625C177.566 48.9062 177.414 49.2422 177.312 49.6328C177.211 50.0156 177.148 50.4375 177.125 50.8984V52.4336C177.148 53.0508 177.25 53.5977 177.43 54.0742C177.617 54.543 177.898 54.9141 178.273 55.1875C178.656 55.4531 179.152 55.5859 179.762 55.5859C180.238 55.5859 180.633 55.4922 180.945 55.3047C181.258 55.1172 181.5 54.8516 181.672 54.5078C181.852 54.1641 181.977 53.7617 182.047 53.3008C182.117 52.832 182.152 52.3242 182.152 51.7773ZM191.188 40V58H187.801V40H191.188ZM199.812 58.2344C198.828 58.2344 197.945 58.0781 197.164 57.7656C196.383 57.4453 195.719 57.0039 195.172 56.4414C194.633 55.8789 194.219 55.2266 193.93 54.4844C193.641 53.7344 193.496 52.9375 193.496 52.0938V51.625C193.496 50.6641 193.633 49.7852 193.906 48.9883C194.18 48.1914 194.57 47.5 195.078 46.9141C195.594 46.3281 196.219 45.8789 196.953 45.5664C197.688 45.2461 198.516 45.0859 199.438 45.0859C200.336 45.0859 201.133 45.2344 201.828 45.5312C202.523 45.8281 203.105 46.25 203.574 46.7969C204.051 47.3438 204.41 48 204.652 48.7656C204.895 49.5234 205.016 50.3672 205.016 51.2969V52.7031H194.938V50.4531H201.699V50.1953C201.699 49.7266 201.613 49.3086 201.441 48.9414C201.277 48.5664 201.027 48.2695 200.691 48.0508C200.355 47.832 199.926 47.7227 199.402 47.7227C198.957 47.7227 198.574 47.8203 198.254 48.0156C197.934 48.2109 197.672 48.4844 197.469 48.8359C197.273 49.1875 197.125 49.6016 197.023 50.0781C196.93 50.5469 196.883 51.0625 196.883 51.625V52.0938C196.883 52.6016 196.953 53.0703 197.094 53.5C197.242 53.9297 197.449 54.3008 197.715 54.6133C197.988 54.9258 198.316 55.168 198.699 55.3398C199.09 55.5117 199.531 55.5977 200.023 55.5977C200.633 55.5977 201.199 55.4805 201.723 55.2461C202.254 55.0039 202.711 54.6406 203.094 54.1562L204.734 55.9375C204.469 56.3203 204.105 56.6875 203.645 57.0391C203.191 57.3906 202.645 57.6797 202.004 57.9062C201.363 58.125 200.633 58.2344 199.812 58.2344Z" fill="#888888"/>
<path d="M109.93 86.0078V118H102.217V86.0078H109.93ZM119.554 86.0078V91.9624H92.813V86.0078H119.554ZM132.012 118.439C130.079 118.439 128.35 118.139 126.827 117.539C125.303 116.923 124.014 116.081 122.959 115.012C121.919 113.942 121.121 112.712 120.564 111.32C120.022 109.929 119.751 108.457 119.751 106.904V106.069C119.751 104.326 119.993 102.714 120.477 101.235C120.96 99.7407 121.678 98.437 122.63 97.3237C123.582 96.2104 124.776 95.3462 126.211 94.731C127.647 94.1011 129.317 93.7861 131.221 93.7861C132.906 93.7861 134.415 94.0571 135.748 94.5991C137.081 95.1411 138.208 95.9175 139.131 96.9282C140.069 97.939 140.779 99.1621 141.263 100.598C141.761 102.033 142.01 103.645 142.01 105.432V108.442H122.586V103.806H134.781V103.234C134.795 102.443 134.656 101.77 134.363 101.213C134.085 100.656 133.675 100.231 133.133 99.9385C132.591 99.6455 131.932 99.499 131.155 99.499C130.35 99.499 129.683 99.6748 129.156 100.026C128.643 100.378 128.24 100.861 127.947 101.477C127.669 102.077 127.471 102.773 127.354 103.564C127.237 104.355 127.178 105.19 127.178 106.069V106.904C127.178 107.783 127.295 108.581 127.53 109.299C127.779 110.017 128.13 110.632 128.584 111.145C129.053 111.643 129.61 112.031 130.254 112.309C130.914 112.587 131.661 112.727 132.496 112.727C133.506 112.727 134.502 112.536 135.484 112.155C136.465 111.774 137.308 111.145 138.011 110.266L141.373 114.265C140.889 114.953 140.201 115.62 139.307 116.264C138.428 116.909 137.374 117.436 136.143 117.846C134.913 118.242 133.536 118.439 132.012 118.439ZM155.062 112.727C155.75 112.727 156.336 112.602 156.819 112.353C157.317 112.089 157.691 111.723 157.94 111.254C158.204 110.771 158.328 110.192 158.313 109.519H165.279C165.293 111.306 164.854 112.873 163.96 114.221C163.082 115.554 161.88 116.594 160.357 117.341C158.848 118.073 157.142 118.439 155.237 118.439C153.377 118.439 151.751 118.139 150.359 117.539C148.968 116.923 147.803 116.074 146.866 114.99C145.943 113.891 145.247 112.609 144.778 111.145C144.324 109.68 144.097 108.09 144.097 106.376V105.871C144.097 104.157 144.324 102.568 144.778 101.103C145.247 99.6235 145.943 98.3418 146.866 97.2578C147.803 96.1592 148.96 95.3096 150.337 94.709C151.729 94.0938 153.348 93.7861 155.193 93.7861C157.171 93.7861 158.914 94.1597 160.423 94.9067C161.946 95.6538 163.14 96.7378 164.004 98.1587C164.869 99.5796 165.293 101.301 165.279 103.322H158.313C158.328 102.604 158.218 101.96 157.984 101.389C157.75 100.817 157.383 100.363 156.885 100.026C156.402 99.6748 155.779 99.499 155.018 99.499C154.256 99.499 153.641 99.6675 153.172 100.004C152.703 100.341 152.344 100.81 152.095 101.411C151.861 101.997 151.7 102.67 151.612 103.432C151.539 104.194 151.502 105.007 151.502 105.871V106.376C151.502 107.255 151.539 108.083 151.612 108.859C151.7 109.621 151.868 110.295 152.117 110.881C152.366 111.452 152.725 111.906 153.194 112.243C153.663 112.565 154.285 112.727 155.062 112.727ZM175.694 84.25V118H168.289V84.25H175.694ZM174.815 105.3L173.079 105.344C173.079 103.674 173.284 102.136 173.694 100.729C174.104 99.3232 174.69 98.1001 175.452 97.0601C176.214 96.02 177.129 95.2144 178.199 94.6431C179.268 94.0718 180.455 93.7861 181.758 93.7861C182.93 93.7861 184 93.9546 184.966 94.2915C185.948 94.6284 186.79 95.1704 187.493 95.9175C188.211 96.6646 188.76 97.6387 189.141 98.8398C189.537 100.041 189.734 101.506 189.734 103.234V118H182.286V103.19C182.286 102.224 182.146 101.477 181.868 100.949C181.604 100.407 181.224 100.034 180.726 99.8286C180.228 99.6089 179.62 99.499 178.902 99.499C178.038 99.499 177.334 99.6455 176.792 99.9385C176.25 100.231 175.833 100.642 175.54 101.169C175.262 101.682 175.071 102.29 174.969 102.993C174.866 103.696 174.815 104.465 174.815 105.3ZM221.88 109.497C221.88 108.999 221.807 108.552 221.661 108.156C221.514 107.746 221.243 107.365 220.848 107.014C220.452 106.662 219.881 106.311 219.134 105.959C218.401 105.593 217.435 105.212 216.233 104.816C214.827 104.348 213.472 103.82 212.168 103.234C210.865 102.634 209.7 101.938 208.675 101.147C207.649 100.341 206.836 99.4038 206.236 98.3345C205.635 97.2505 205.335 95.9907 205.335 94.5552C205.335 93.1782 205.643 91.9404 206.258 90.8418C206.873 89.7285 207.73 88.7837 208.829 88.0073C209.942 87.2163 211.246 86.6157 212.74 86.2056C214.234 85.7808 215.867 85.5684 217.64 85.5684C219.983 85.5684 222.049 85.9785 223.836 86.7988C225.638 87.6045 227.044 88.7544 228.055 90.2485C229.08 91.728 229.593 93.4785 229.593 95.5H221.924C221.924 94.6943 221.756 93.9839 221.419 93.3687C221.097 92.7534 220.606 92.27 219.947 91.9185C219.288 91.5669 218.46 91.3911 217.464 91.3911C216.497 91.3911 215.684 91.5376 215.025 91.8306C214.366 92.1235 213.868 92.519 213.531 93.0171C213.194 93.5005 213.025 94.0352 213.025 94.6211C213.025 95.1045 213.157 95.5439 213.421 95.9395C213.699 96.3203 214.087 96.6792 214.585 97.0161C215.098 97.353 215.713 97.6753 216.431 97.9829C217.164 98.2905 217.984 98.5908 218.892 98.8838C220.591 99.4258 222.1 100.034 223.418 100.708C224.751 101.367 225.872 102.121 226.78 102.971C227.703 103.806 228.399 104.758 228.868 105.827C229.351 106.896 229.593 108.105 229.593 109.453C229.593 110.888 229.314 112.163 228.758 113.276C228.201 114.389 227.403 115.334 226.363 116.11C225.323 116.872 224.078 117.451 222.627 117.846C221.177 118.242 219.559 118.439 217.771 118.439C216.131 118.439 214.512 118.234 212.916 117.824C211.333 117.399 209.898 116.755 208.609 115.891C207.32 115.012 206.287 113.891 205.511 112.529C204.749 111.152 204.368 109.519 204.368 107.629H212.103C212.103 108.566 212.227 109.357 212.476 110.002C212.725 110.646 213.091 111.167 213.575 111.562C214.058 111.943 214.651 112.221 215.354 112.397C216.058 112.558 216.863 112.639 217.771 112.639C218.753 112.639 219.544 112.5 220.145 112.221C220.745 111.928 221.185 111.547 221.463 111.079C221.741 110.595 221.88 110.068 221.88 109.497ZM245.743 94.2256V99.3672H231.417V94.2256H245.743ZM234.427 88.3149H241.832V110.244C241.832 110.874 241.905 111.364 242.051 111.716C242.198 112.053 242.447 112.294 242.798 112.441C243.165 112.573 243.648 112.639 244.249 112.639C244.673 112.639 245.025 112.631 245.303 112.617C245.582 112.587 245.845 112.551 246.094 112.507V117.802C245.464 118.007 244.805 118.161 244.117 118.264C243.428 118.381 242.696 118.439 241.919 118.439C240.337 118.439 238.982 118.19 237.854 117.692C236.741 117.194 235.892 116.411 235.306 115.341C234.72 114.272 234.427 112.88 234.427 111.167V88.3149ZM261.036 112.023V102.224C261.036 101.55 260.94 100.971 260.75 100.488C260.56 100.004 260.259 99.6309 259.849 99.3672C259.439 99.0889 258.89 98.9497 258.201 98.9497C257.645 98.9497 257.168 99.0449 256.773 99.2354C256.377 99.4258 256.077 99.7114 255.872 100.092C255.667 100.473 255.564 100.957 255.564 101.542H248.16C248.16 100.444 248.401 99.4258 248.885 98.4883C249.383 97.5361 250.086 96.7085 250.994 96.0054C251.917 95.3022 253.016 94.7603 254.29 94.3794C255.579 93.9839 257.015 93.7861 258.597 93.7861C260.486 93.7861 262.171 94.1011 263.65 94.731C265.145 95.3608 266.324 96.3057 267.188 97.5654C268.052 98.8105 268.484 100.378 268.484 102.268V112.001C268.484 113.554 268.572 114.733 268.748 115.539C268.924 116.33 269.173 117.026 269.495 117.626V118H262.068C261.717 117.268 261.453 116.374 261.277 115.319C261.116 114.25 261.036 113.151 261.036 112.023ZM261.937 103.476L261.98 107.431H258.707C258.018 107.431 257.432 107.526 256.949 107.717C256.48 107.907 256.099 108.171 255.806 108.508C255.528 108.83 255.323 109.196 255.191 109.606C255.074 110.017 255.015 110.449 255.015 110.903C255.015 111.342 255.118 111.738 255.323 112.089C255.542 112.426 255.835 112.69 256.202 112.88C256.568 113.071 256.978 113.166 257.432 113.166C258.252 113.166 258.948 113.012 259.52 112.705C260.105 112.382 260.552 111.994 260.86 111.54C261.167 111.086 261.321 110.661 261.321 110.266L262.947 113.298C262.654 113.884 262.317 114.477 261.937 115.078C261.57 115.678 261.109 116.235 260.552 116.748C260.01 117.246 259.344 117.656 258.553 117.978C257.762 118.286 256.802 118.439 255.674 118.439C254.209 118.439 252.862 118.139 251.631 117.539C250.416 116.938 249.441 116.103 248.709 115.034C247.977 113.95 247.61 112.705 247.61 111.298C247.61 110.068 247.83 108.969 248.27 108.002C248.724 107.036 249.405 106.215 250.313 105.542C251.221 104.868 252.378 104.355 253.785 104.003C255.191 103.652 256.846 103.476 258.75 103.476H261.937ZM282.635 112.727C283.323 112.727 283.909 112.602 284.393 112.353C284.891 112.089 285.264 111.723 285.513 111.254C285.777 110.771 285.901 110.192 285.887 109.519H292.852C292.867 111.306 292.427 112.873 291.534 114.221C290.655 115.554 289.454 116.594 287.93 117.341C286.421 118.073 284.715 118.439 282.811 118.439C280.95 118.439 279.324 118.139 277.933 117.539C276.541 116.923 275.376 116.074 274.439 114.99C273.516 113.891 272.82 112.609 272.352 111.145C271.897 109.68 271.67 108.09 271.67 106.376V105.871C271.67 104.157 271.897 102.568 272.352 101.103C272.82 99.6235 273.516 98.3418 274.439 97.2578C275.376 96.1592 276.534 95.3096 277.911 94.709C279.302 94.0938 280.921 93.7861 282.767 93.7861C284.744 93.7861 286.487 94.1597 287.996 94.9067C289.52 95.6538 290.713 96.7378 291.578 98.1587C292.442 99.5796 292.867 101.301 292.852 103.322H285.887C285.901 102.604 285.792 101.96 285.557 101.389C285.323 100.817 284.957 100.363 284.458 100.026C283.975 99.6748 283.353 99.499 282.591 99.499C281.829 99.499 281.214 99.6675 280.745 100.004C280.276 100.341 279.917 100.81 279.668 101.411C279.434 101.997 279.273 102.67 279.185 103.432C279.112 104.194 279.075 105.007 279.075 105.871V106.376C279.075 107.255 279.112 108.083 279.185 108.859C279.273 109.621 279.441 110.295 279.69 110.881C279.939 111.452 280.298 111.906 280.767 112.243C281.236 112.565 281.858 112.727 282.635 112.727ZM303.487 84.228V118H296.082V84.228H303.487ZM318.692 94.2256L308.365 106.333L302.959 111.738L299.729 107.036L304.234 101.169L309.815 94.2256H318.692ZM310.76 118L304.41 107.167L309.881 103.278L319.241 118H310.76Z" fill="#424241"/>
<path d="M1363 15C1363 6.71573 1356.28 0 1348 0H1134V167H1348C1356.28 167 1363 160.284 1363 152V15Z" fill="#FDCF70"/>
<path fill-rule="evenodd" clip-rule="evenodd" d="M1218.5 55C1218.37 55 1218.24 55.0527 1218.15 55.1464C1218.05 55.2402 1218 55.3674 1218 55.5V111.5C1218 111.633 1218.05 111.76 1218.15 111.854C1218.24 111.947 1218.37 112 1218.5 112H1278C1278.13 112 1278.26 111.947 1278.35 111.854C1278.45 111.76 1278.5 111.633 1278.5 111.5V66C1278.5 65.8674 1278.45 65.7402 1278.35 65.6464C1278.26 65.5527 1278.13 65.5 1278 65.5H1248.25C1247.36 65.5 1246.52 65.1045 1245.95 64.4206L1238.09 55H1218.5ZM1213.9 50.9038C1215.12 49.6848 1216.78 49 1218.5 49H1239.5C1240.39 49 1241.23 49.3955 1241.8 50.0794L1249.66 59.5H1278C1279.72 59.5 1281.38 60.1848 1282.6 61.4038C1283.82 62.6228 1284.5 64.2761 1284.5 66V111.5C1284.5 113.224 1283.82 114.877 1282.6 116.096C1281.38 117.315 1279.72 118 1278 118H1218.5C1216.78 118 1215.12 117.315 1213.9 116.096C1212.68 114.877 1212 113.224 1212 111.5V55.5C1212 53.7761 1212.68 52.1228 1213.9 50.9038Z" fill="white"/>
<path fill-rule="evenodd" clip-rule="evenodd" d="M1243.72 77.5251C1245.09 78.892 1245.09 81.108 1243.72 82.4749L1237.45 88.75L1243.72 95.0251C1245.09 96.392 1245.09 98.608 1243.72 99.9749C1242.36 101.342 1240.14 101.342 1238.78 99.9749L1230.03 91.2249C1228.66 89.858 1228.66 87.642 1230.03 86.2751L1238.78 77.5251C1240.14 76.1583 1242.36 76.1583 1243.72 77.5251Z" fill="white"/>
<path fill-rule="evenodd" clip-rule="evenodd" d="M1252.03 99.9749C1250.66 98.608 1250.66 96.392 1252.03 95.0251L1258.3 88.75L1252.03 82.4749C1250.66 81.108 1250.66 78.892 1252.03 77.5251C1253.39 76.1583 1255.61 76.1583 1256.97 77.5251L1265.72 86.2751C1267.09 87.642 1267.09 89.858 1265.72 91.2249L1256.97 99.9749C1255.61 101.342 1253.39 101.342 1252.03 99.9749Z" fill="white"/>
</svg>
